<?xml version="1.0" encoding="UTF-8"?>
<svg width="12px" height="12px" viewBox="0 0 12 12" version="1.1" xmlns="http://www.w3.org/2000/svg" xmlns:xlink="http://www.w3.org/1999/xlink">
    <!-- Generator: Sketch 56.3 (81716) - https://sketch.com -->
    <title>Icon / Calendar</title>
    <desc>Created with Sketch.</desc>
    <g id="Icon-/-Calendar" stroke="none" stroke-width="1" fill="none" fill-rule="evenodd">
        <g id="Mobile/Icon/Calender" transform="translate(1.000000, 1.000000)">
            <rect id="Rectangle-Copy-2" x="0" y="0" width="10" height="10"></rect>
            <path d="M3.75,1.875 L6.25,1.875 L6.25,2.5 C6.25,3.19035594 6.80964406,3.75 7.5,3.75 C8.19035594,3.75 8.75,3.19035594 8.75,2.5 L8.75,1.875 L9.375,1.875 C9.72017797,1.875 10,2.15482203 10,2.5 L10,5 L0,5 L0,2.5 C-4.22721094e-17,2.15482203 0.279822031,1.875 0.625,1.875 L1.25,1.875 L1.25,2.5 C1.25,3.19035594 1.80964406,3.75 2.5,3.75 C3.19035594,3.75 3.75,3.19035594 3.75,2.5 L3.75,1.875 Z M10,5.625 L10,9.375 C10,9.72017797 9.72017797,10 9.375,10 L0.625,10 C0.279822031,10 4.22721094e-17,9.72017797 0,9.375 L0,5.625 L10,5.625 Z M2.5,0 C2.84517797,-6.34081642e-17 3.125,0.279822031 3.125,0.625 L3.125,2.5 C3.125,2.84517797 2.84517797,3.125 2.5,3.125 C2.15482203,3.125 1.875,2.84517797 1.875,2.5 L1.875,0.625 C1.875,0.279822031 2.15482203,6.34081642e-17 2.5,0 Z M7.5,0 C7.84517797,-6.34081642e-17 8.125,0.279822031 8.125,0.625 L8.125,2.5 C8.125,2.84517797 7.84517797,3.125 7.5,3.125 C7.15482203,3.125 6.875,2.84517797 6.875,2.5 L6.875,0.625 C6.875,0.279822031 7.15482203,6.34081642e-17 7.5,0 Z" id="Combined-Shape-Copy" fill="#A4A4A4"></path>
        </g>
    </g>
</svg>