<?xml version="1.0" encoding="UTF-8"?>
<svg width="24px" height="24px" viewBox="0 0 24 24" version="1.1" xmlns="http://www.w3.org/2000/svg" xmlns:xlink="http://www.w3.org/1999/xlink">
    <!-- Generator: Sketch 56.3 (81716) - https://sketch.com -->
    <title>icon-setting</title>
    <desc>Created with Sketch.</desc>
    <g id="icon-setting" stroke="none" stroke-width="1" fill="none" fill-rule="evenodd" stroke-linecap="square">
        <g id="settings" transform="translate(3.000000, 3.000000)" stroke="#4D5256" stroke-width="2">
            <path d="M2.03506429,9.7050339 C2.01187484,9.4731696 2,9.2379716 2,9 C2,8.7620284 2.01187484,8.5268304 2.03506429,8.2949661 L0.20577137,6.23205081 L2.20577137,2.76794919 L4.9069713,3.32070904 C5.28729123,3.0461342 5.69629298,2.80882212 6.12862533,2.61412402 L7,0 L11,0 L11.8713747,2.61412402 C12.303707,2.80882212 12.7127088,3.0461342 13.0930287,3.32070904 L15.7942286,2.76794919 L17.7942286,6.23205081 L15.9649357,8.2949661 C15.9881252,8.5268304 16,8.7620284 16,9 C16,9.2379716 15.9881252,9.4731696 15.9649357,9.7050339 L17.7942286,11.7679492 L15.7942286,15.2320508 L13.0930287,14.679291 C12.7127088,14.9538658 12.303707,15.1911779 11.8713747,15.385876 L11,18 L7,18 L6.12862533,15.385876 C5.69629298,15.1911779 5.28729123,14.9538658 4.9069713,14.679291 L2.20577137,15.2320508 L0.20577137,11.7679492 L2.03506429,9.7050339 Z" id="Path"></path>
            <circle id="Oval" cx="9" cy="9" r="3"></circle>
        </g>
    </g>
</svg>