<?xml version="1.0" encoding="UTF-8"?>
<svg width="288px" height="219px" viewBox="0 0 288 219" version="1.1" xmlns="http://www.w3.org/2000/svg" xmlns:xlink="http://www.w3.org/1999/xlink">
    <!-- Generator: Sketch 56.3 (81716) - https://sketch.com -->
    <title>undraw_result_5583</title>
    <desc>Created with Sketch.</desc>
    <g id="Page-1" stroke="none" stroke-width="1" fill="none" fill-rule="evenodd">
        <g id="Main-Logout-Copy" transform="translate(-34.000000, -151.000000)" fill-rule="nonzero">
            <g id="undraw_result_5583" transform="translate(34.000000, 151.000000)">
                <path d="M188.589155,0 L136.101191,58.5825081 C143.793148,64.5502805 147.510001,74.3129151 145.734479,83.8851677 C143.958957,93.4574204 136.988145,101.23764 127.667626,104.049831 C118.347107,106.862022 108.236411,104.235644 101.462867,97.2428192 L28.3501863,178.844859 C49.4298228,195.227551 75.3760554,204.102841 102.073285,204.063062 C168.554975,204.063062 222.449006,150.168913 222.449006,83.6873097 C222.489081,52.4469688 210.341484,22.4231289 188.589155,0 Z" id="Path" fill="#F2F2F2"></path>
                <circle id="Oval" fill="#F2F2F2" cx="121.042486" cy="80.4804241" r="15.7045344"></circle>
                <rect id="Rectangle" fill="#3F3D56" x="26.5670993" y="109.637989" width="171.584765" height="108.115912"></rect>
                <path d="M215.011674,56.0439188 C215.011674,56.0439188 203.952451,55.5955728 203.653554,66.9536924 C203.354657,78.3118119 203.653554,88.0259935 203.653554,88.0259935 L225.77201,88.0259935 L225.77201,67.5514981 C225.77201,67.5514981 225.323653,56.791162 215.011674,56.0439188 Z" id="Path" fill="#2F2E41"></path>
                <path d="M210.694751,76.2859042 C210.694751,76.2859042 211.351324,83.7270792 209.162735,84.3836553 C206.974147,85.0402314 210.038166,94.451129 210.038166,94.451129 L218.792491,96.4208516 L223.826228,86.3533779 L221.637656,83.5082215 C221.637656,83.5082215 217.917068,78.4744846 219.667933,74.9727466 C221.418798,71.4710085 210.694751,76.2859042 210.694751,76.2859042 Z" id="Path" fill="#FFB9B9"></path>
                <path d="M210.694751,76.2859042 C210.694751,76.2859042 211.351324,83.7270792 209.162735,84.3836553 C206.974147,85.0402314 210.038166,94.451129 210.038166,94.451129 L218.792491,96.4208516 L223.826228,86.3533779 L221.637656,83.5082215 C221.637656,83.5082215 217.917068,78.4744846 219.667933,74.9727466 C221.418798,71.4710085 210.694751,76.2859042 210.694751,76.2859042 Z" id="Path" fill="#000000" opacity="0.1"></path>
                <circle id="Oval" fill="#FFB9B9" cx="213.758762" cy="71.2521674" r="8.53546656"></circle>
                <path d="M180.492324,100.579155 C180.492324,100.579155 175.23973,104.518603 176.771737,107.582614 C178.303744,110.646625 182.899762,121.151817 182.899762,121.151817 C182.899762,121.151817 183.775196,129.249568 187.495784,128.811853 C191.216371,128.374137 187.495784,120.276378 187.495784,120.276378 L182.899762,107.801475 L184.431778,105.394034 L180.492324,100.579155 Z" id="Path" fill="#FFB9B9"></path>
                <path d="M251.402361,101.892304 C251.402361,101.892304 257.311529,106.488325 253.809799,108.23919 C250.308069,109.990055 235.425717,118.306664 235.425717,118.306664 C235.425717,118.306664 226.452535,125.091265 225.358243,119.838679 C224.263952,114.586093 231.267414,114.804942 231.267414,114.804942 C231.267414,114.804942 245.274333,106.269467 245.930906,104.518611 C246.587479,102.767754 251.402361,101.892304 251.402361,101.892304 Z" id="Path" fill="#FFB9B9"></path>
                <path d="M199.314128,131.875867 C199.314128,131.875867 196.468971,147.414802 198.000979,156.169118 C198.902882,161.618439 198.754308,167.189967 197.563263,172.583477 L206.098738,173.458908 C206.098738,173.458908 211.570182,141.067907 214.634213,141.286765 C217.698244,141.505623 224.263971,173.896627 224.263971,173.896627 L233.456011,172.583477 C233.456011,172.583477 230.610854,158.13884 231.923995,153.761679 C233.237136,149.384519 232.361711,133.626732 229.078842,131.875867 C225.795973,130.125002 199.314128,131.875867 199.314128,131.875867 Z" id="Path" fill="#575A89"></path>
                <path d="M206.974161,172.583477 C206.974161,172.583477 197.125547,169.300605 196.250114,171.708044 C195.37468,174.115482 195.59354,201.035034 195.812398,202.785912 C196.031256,204.536791 196.687829,203.661343 196.031256,204.536777 C195.374683,205.412211 195.374683,203.442486 195.59354,205.849924 C195.812398,208.257362 196.031259,208.695066 196.031259,208.695066 C196.031259,208.695066 192.091813,217.887106 199.095273,217.668248 C206.098732,217.449391 202.81586,210.883647 202.81586,210.883647 C202.81586,210.883647 203.910152,208.913924 203.253576,207.819635 C202.597,206.725346 202.378145,204.974479 203.253576,204.099045 C204.129007,203.223611 202.378145,201.472749 202.159287,200.816173 C201.940429,200.159597 201.283853,200.378457 203.034718,198.189877 C204.785583,196.001297 203.910152,194.907005 203.691294,194.250432 C203.472436,193.593859 205.22331,189.654411 205.22331,189.654411 L206.974161,172.583477 Z" id="Path" fill="#2F2E41"></path>
                <path d="M223.607378,172.583477 C223.607378,172.583477 233.455994,169.300605 234.331428,171.708044 C235.206862,174.115482 234.988001,201.035034 234.769143,202.785912 C234.550286,204.536791 233.89371,203.661343 234.550286,204.536777 C235.206862,205.412211 235.206859,203.442486 234.988001,205.849924 C234.769143,208.257362 234.550286,208.69508 234.550286,208.69508 C234.550286,208.69508 238.489731,217.88712 231.486272,217.668262 C224.482812,217.449404 227.765684,210.883661 227.765684,210.883661 C227.765684,210.883661 226.671392,208.913938 227.327966,207.819649 C227.984539,206.72536 228.2034,204.974493 227.327966,204.099059 C226.452532,203.223625 228.2034,201.472763 228.422257,200.816187 C228.641115,200.159611 229.297691,200.378471 227.546826,198.189891 C225.795961,196.001311 226.671392,194.907019 226.89025,194.250446 C227.109108,193.593872 225.358235,189.654424 225.358235,189.654424 L223.607378,172.583477 Z" id="Path" fill="#2F2E41"></path>
                <path d="M214.196481,91.3871147 C214.196481,91.3871147 212.664465,86.7910934 211.78904,85.9156707 C210.913614,85.040248 210.34559,82.7748473 210.34559,82.7748473 C210.34559,82.7748473 205.442156,84.6025214 204.129007,85.0402369 C202.815858,85.4779524 198.438694,85.4779524 198.438694,86.1345285 L198.438694,100.141447 C198.438694,100.141447 198.000979,102.986604 198.876412,110.208921 C199.751846,117.431238 202.378142,121.808402 199.314128,124.872416 C196.250114,127.93643 198.876412,135.377605 200.408419,136.690755 C201.940427,138.003904 231.705129,144.788503 231.923987,128.811861 C231.923987,128.811861 224.70167,116.118089 227.765684,111.959786 C230.829698,107.801483 233.455994,100.798021 233.455994,100.798021 L233.455994,86.7911018 C233.455994,86.7911018 228.641115,85.2590863 227.109108,85.0402369 C225.577101,84.8213875 221.856513,80.6630761 221.418798,80.8819339 C220.981082,81.1007917 220.135219,80.873592 220.135219,80.873592 L220.105648,83.9459481 L214.196481,91.3871147 Z" id="Path" fill="#4B2BFF"></path>
                <path d="M201.502703,87.2288145 L198.438688,86.1345257 C198.438688,86.1345257 194.718101,88.1042483 194.718101,88.5419639 C194.718101,88.9796794 192.529521,90.9494048 191.435229,91.8248358 C190.340937,92.7002669 187.276926,92.9191274 187.276926,93.3568513 C187.276926,93.7945751 177.647168,100.798026 178.522602,101.892326 C179.398036,102.986626 182.243189,106.926063 183.775196,106.926063 C185.307203,106.926063 189.027799,102.986596 189.68437,102.767749 C190.34094,102.548902 197.125547,98.3905853 199.314128,99.0471586 C201.502703,99.7037319 201.502703,87.2288145 201.502703,87.2288145 Z" id="Path" fill="#4B2BFF"></path>
                <path d="M229.297691,87.6665273 L233.455994,86.7910934 C233.455994,86.7910934 241.334887,92.7002641 241.553745,92.9191219 C241.772603,93.1379796 254.028649,101.016873 253.372084,102.548877 C252.715519,104.080882 245.712048,106.269467 243.961183,105.612891 C242.210318,104.956315 234.769143,99.4848658 231.923987,100.141447 C229.078831,100.798029 229.297691,87.6665273 229.297691,87.6665273 Z" id="Path" fill="#4B2BFF"></path>
                <path d="M222.84139,68.5164398 C223.880431,64.1524726 223.455553,62.9932893 223.455553,62.9932893 L210.154598,59.7054134 L205.521682,64.1888729 L205.521682,68.8217921 L205.989315,70.2672825 C205.989315,70.2672825 207.912863,68.8217921 207.165619,66.7295055 C207.165606,66.7295277 222.09413,71.6548698 222.84139,68.5164398 Z" id="Path" fill="#2F2E41"></path>
                <path d="M223.007073,66.073655 L221.747076,67.422151 C223.734326,67.4462085 221.087456,83.4390208 221.965934,86.0250913 L225.248806,86.0998156 L225.248806,64.7969282 L223.007073,66.073655 Z" id="Path" fill="#2F2E41"></path>
                <ellipse id="Oval" fill="#FFB9B9" cx="205.551585" cy="69.9390181" rx="1" ry="1.42257822"></ellipse>
                <ellipse id="Oval" fill="#FFB9B9" cx="222.403661" cy="69.9390181" rx="1" ry="1.42257822"></ellipse>
                <polygon id="Path" fill="#2F2E41" points="103.609668 193.135969 103.216587 192.742888 120.116571 175.842903 105.162533 160.888865 105.555614 160.495784 120.902734 175.842903"></polygon>
                <circle id="Oval" fill="#4B2BFF" cx="119.53668" cy="175.981783" r="5.83783784"></circle>
                <circle id="Oval" fill="#4B2BFF" cx="104.247104" cy="192.939312" r="5.83783784"></circle>
                <polygon id="Path" fill="#2F2E41" points="104.721637 160.888865 104.328556 160.495784 121.228541 143.595799 106.274502 128.641761 106.667583 128.24868 122.014703 143.595799"></polygon>
                <circle id="Oval" fill="#4B2BFF" cx="106.471042" cy="128.445103" r="5.83783784"></circle>
                <circle id="Oval" fill="#4B2BFF" cx="120.648649" cy="143.734679" r="5.83783784"></circle>
                <circle id="Oval" fill="#4B2BFF" cx="105.359073" cy="160.692208" r="5.83783784"></circle>
                <rect id="Rectangle" fill="#4B2BFF" opacity="0.3" x="34.1930502" y="116.491435" width="28.9111969" height="5.28185328"></rect>
                <rect id="Rectangle" fill="#4B2BFF" opacity="0.3" x="149.559846" y="176.259775" width="28.9111969" height="1.38996139"></rect>
                <rect id="Rectangle" fill="#4B2BFF" opacity="0.3" x="149.559846" y="180.429659" width="28.9111969" height="1.38996139"></rect>
                <rect id="Rectangle" fill="#4B2BFF" opacity="0.3" x="149.559846" y="184.599543" width="28.9111969" height="1.38996139"></rect>
                <rect id="Rectangle" fill="#4B2BFF" opacity="0.3" x="149.559846" y="188.769428" width="28.9111969" height="1.38996139"></rect>
                <rect id="Rectangle" fill="#4B2BFF" opacity="0.3" x="149.559846" y="192.939312" width="28.9111969" height="1.38996139"></rect>
                <rect id="Rectangle" fill="#4B2BFF" opacity="0.3" x="149.559846" y="197.109196" width="28.9111969" height="1.38996139"></rect>
                <path d="M18.5582085,206.543195 C20.4802471,213.648185 27.0636436,218.048486 27.0636436,218.048486 C27.0636436,218.048486 30.5308105,210.929318 28.6087747,203.824327 C26.6867388,196.719337 20.1033424,192.319036 20.1033424,192.319036 C20.1033424,192.319036 16.6361699,199.438204 18.5582085,206.543195 Z" id="Path" fill="#3F3D56"></path>
                <path d="M21.3824905,205.016255 C26.6565795,210.150367 27.300771,218.042696 27.300771,218.042696 C27.300771,218.042696 19.3939756,217.610974 14.1198866,212.476868 C8.84579768,207.342762 8.20160618,199.450427 8.20160618,199.450427 C8.20160618,199.450427 16.1084015,199.882144 21.3824905,205.016255 Z" id="Path" fill="#4B2BFF"></path>
                <rect id="Rectangle" fill="#3F3D56" x="0" y="217.402632" width="288" height="1"></rect>
                <path d="M272.015444,200.299711 C272.0123,197.778292 270.464205,195.516468 268.114898,194.600869 C270.858122,193.534822 272.453029,190.666099 271.910719,187.773413 C271.368409,184.880726 268.842696,182.784522 265.899614,182.784522 C262.956531,182.784522 260.430819,184.880726 259.888509,187.773413 C259.346199,190.666099 260.941106,193.534822 263.68433,194.600869 C261.332976,195.513888 259.783782,197.777317 259.783782,200.299711 C259.783782,202.822104 261.332976,205.085533 263.68433,205.998552 C260.941106,207.0646 259.346199,209.933322 259.888509,212.826009 C260.430819,215.718695 262.956531,217.814899 265.899614,217.814899 C268.842696,217.814899 271.368409,215.718695 271.910719,212.826009 C272.453029,209.933322 270.858122,207.0646 268.114898,205.998552 C270.464204,205.082953 272.012299,202.821129 272.015444,200.299711 Z M260.339766,188.902027 C260.33732,185.994277 262.575821,183.575756 265.475084,183.353731 C268.374346,183.131707 270.955005,185.181178 271.395338,188.055395 C271.835671,190.929612 269.986934,193.657671 267.154176,194.313797 C266.32677,194.140575 265.472457,194.140575 264.645051,194.313797 C262.127403,193.728457 260.344091,191.48682 260.339766,188.902027 L260.339766,188.902027 Z M271.459461,211.697394 C271.461906,214.605144 269.223405,217.023664 266.324142,217.245687 C263.42488,217.467711 260.844222,215.41824 260.40389,212.544022 C259.963558,209.669805 261.812294,206.941747 264.645051,206.285621 C265.472457,206.458847 266.326771,206.458847 267.154176,206.285621 C269.671825,206.870963 271.455138,209.1126 271.459461,211.697394 Z M267.154176,205.711481 C266.32677,205.538258 265.472457,205.538258 264.645051,205.711481 C262.124961,205.130009 260.339772,202.886013 260.339772,200.299709 C260.339772,197.713405 262.124961,195.469409 264.645051,194.887938 C265.472457,195.061164 266.326771,195.061164 267.154176,194.887938 C269.674267,195.469409 271.459455,197.713405 271.459455,200.299709 C271.459455,202.886013 269.674267,205.130009 267.154176,205.711481 L267.154176,205.711481 Z" id="Shape" fill="#3F3D56"></path>
                <path d="M29.6061776,99.1105186 C26.2284979,99.1105186 23.4903475,96.3723682 23.4903475,92.9946885 C23.4903475,89.6170088 26.2284979,86.8788584 29.6061776,86.8788584 C32.9838573,86.8788584 35.7220077,89.6170088 35.7220077,92.9946885 C35.7181946,96.3707875 32.9822766,99.1067055 29.6061776,99.1105186 L29.6061776,99.1105186 Z M29.6061776,87.4348429 C26.5355597,87.4348429 24.046332,89.9240706 24.046332,92.9946885 C24.046332,96.0653064 26.5355597,98.5545341 29.6061776,98.5545341 C32.6767955,98.5545341 35.1660232,96.0653064 35.1660232,92.9946885 C35.1626082,89.9254862 32.6753799,87.4382579 29.6061776,87.4348429 L29.6061776,87.4348429 Z" id="Shape" fill="#3F3D56"></path>
                <path d="M159.428571,38.2302097 C156.050892,38.2302097 153.312741,35.4920593 153.312741,32.1143796 C153.312741,28.7366999 156.050892,25.9985495 159.428571,25.9985495 C162.806251,25.9985495 165.544402,28.7366999 165.544402,32.1143796 C165.540588,35.4904786 162.80467,38.2263966 159.428571,38.2302097 L159.428571,38.2302097 Z M159.428571,26.5545341 C156.357954,26.5545341 153.868726,29.0437617 153.868726,32.1143796 C153.868726,35.1849975 156.357954,37.6742252 159.428571,37.6742252 C162.499189,37.6742252 164.988417,35.1849975 164.988417,32.1143796 C164.985002,29.0451773 162.497774,26.557949 159.428571,26.5545341 Z" id="Shape" fill="#3F3D56"></path>
            </g>
        </g>
    </g>
</svg>