<?xml version="1.0" encoding="UTF-8"?>
<svg width="288px" height="180px" viewBox="0 0 288 180" version="1.1" xmlns="http://www.w3.org/2000/svg" xmlns:xlink="http://www.w3.org/1999/xlink">
    <!-- Generator: Sketch 56.3 (81716) - https://sketch.com -->
    <title>undraw_creative_team_r90h</title>
    <desc>Created with Sketch.</desc>
    <g id="Page-1" stroke="none" stroke-width="1" fill="none" fill-rule="evenodd">
        <g id="Main-Logout" transform="translate(-36.000000, -190.000000)" fill-rule="nonzero">
            <g id="undraw_creative_team_r90h" transform="translate(36.000000, 190.000000)">
                <circle id="Oval" fill="#F2F2F2" cx="218.902036" cy="94.4597467" r="65.1978353"></circle>
                <circle id="Oval" fill="#FF6584" cx="35.3726554" cy="24.8984034" r="24.8984034"></circle>
                <circle id="Oval" fill="#F2F2F2" cx="80.0357262" cy="68.534613" r="65.1978353"></circle>
                <ellipse id="Oval" fill="#3F3D56" cx="76.955538" cy="133.475936" rx="71.6149733" ry="3.85026738"></ellipse>
                <ellipse id="Oval" fill="#000000" opacity="0.1" cx="62.5812064" cy="133.608703" rx="53.6470588" ry="2.65535743"></ellipse>
                <ellipse id="Oval" fill="#3F3D56" cx="216.335217" cy="160.299465" rx="71.6149733" ry="4.23529412"></ellipse>
                <ellipse id="Oval" fill="#000000" opacity="0.1" cx="201.960886" cy="160.445511" rx="53.6470588" ry="2.92089241"></ellipse>
                <ellipse id="Oval" fill="#3F3D56" cx="102.905575" cy="150.417112" rx="45.7010002" ry="2.31016043"></ellipse>
                <ellipse id="Oval" fill="#3F3D56" cx="22.0499602" cy="142.716578" rx="22.0499602" ry="1.1146139"></ellipse>
                <ellipse id="Oval" fill="#3F3D56" cx="244.601544" cy="177.368984" rx="41.0384856" ry="2.07447273"></ellipse>
                <rect id="Rectangle" fill="#3F3D56" x="158.067837" y="111.144385" width="82.1390374" height="48.7700535"></rect>
                <circle id="Oval" fill="#4B2BFF" cx="184.50634" cy="136.042781" r="18.4812834"></circle>
                <rect id="Rectangle" fill="#4B2BFF" x="208.634682" y="118.84492" width="6.16042781" height="6.16042781"></rect>
                <rect id="Rectangle" fill="#4B2BFF" opacity="0.5" x="216.335217" y="118.84492" width="6.16042781" height="6.16042781"></rect>
                <rect id="Rectangle" fill="#4B2BFF" opacity="0.2" x="224.035752" y="118.84492" width="6.16042781" height="6.16042781"></rect>
                <rect id="Rectangle" fill="#2F2E41" x="208.634682" y="126.545455" width="6.16042781" height="6.16042781"></rect>
                <rect id="Rectangle" fill="#2F2E41" opacity="0.5" x="216.335217" y="126.545455" width="6.16042781" height="6.16042781"></rect>
                <rect id="Rectangle" fill="#2F2E41" opacity="0.2" x="224.035752" y="126.545455" width="6.16042781" height="6.16042781"></rect>
                <rect id="Rectangle" fill="#FF6584" x="208.634682" y="134.245989" width="6.16042781" height="6.16042781"></rect>
                <rect id="Rectangle" fill="#FF6584" opacity="0.5" x="216.335217" y="134.245989" width="6.16042781" height="6.16042781"></rect>
                <rect id="Rectangle" fill="#FF6584" opacity="0.2" x="224.035752" y="134.245989" width="6.16042781" height="6.16042781"></rect>
                <path d="M184.506345,117.561497 L184.506345,154.524064 C194.713283,154.524064 203.500998,146.249704 203.500998,136.042781 C203.500998,125.835858 194.713276,117.561497 184.506345,117.561497 Z" id="Path" fill="#3F3D56" opacity="0.5"></path>
                <path d="M257.789768,114.609626 C257.789768,114.609626 268.570516,119.486631 264.720249,125.13369 C260.869982,130.780749 249.319179,141.561497 249.062495,143.871658 C248.80581,146.181818 247.265704,148.235294 247.265704,148.235294 C247.265704,148.235294 242.132014,142.84492 242.645383,142.331551 C243.158752,141.818182 248.292441,136.941176 248.549126,135.657754 C248.80581,134.374332 256.506345,124.363636 256.506345,124.363636 L249.575864,118.203209 L257.789768,114.609626 Z" id="Path" fill="#FFB9B9"></path>
                <path d="M257.789768,114.609626 C257.789768,114.609626 268.570516,119.486631 264.720249,125.13369 C260.869982,130.780749 249.319179,141.561497 249.062495,143.871658 C248.80581,146.181818 247.265704,148.235294 247.265704,148.235294 C247.265704,148.235294 242.132014,142.84492 242.645383,142.331551 C243.158752,141.818182 248.292441,136.941176 248.549126,135.657754 C248.80581,134.374332 256.506345,124.363636 256.506345,124.363636 L249.575864,118.203209 L257.789768,114.609626 Z" id="Path" fill="#000000" opacity="0.1"></path>
                <path d="M244.18549,125.390374 C244.18549,125.390374 251.62934,128.470588 251.115971,133.347594 C250.602602,138.224599 260.099928,152.085561 260.099928,152.085561 C260.099928,152.085561 261.126666,155.42246 260.869982,156.449198 C260.613297,157.475936 267.543778,157.219251 267.543778,157.219251 L267.543778,154.909091 C267.543778,154.909091 262.153404,145.668449 261.640035,143.101604 C261.126666,140.534759 258.046452,130.524064 258.046452,130.524064 C258.046452,130.524064 257.019714,121.540107 251.886024,121.540107 C248.856275,121.540107 246.003339,122.966575 244.18549,125.390374 L244.18549,125.390374 Z" id="Path" fill="#FFB9B9"></path>
                <path d="M244.570516,102.160428 C244.570516,102.160428 259.971586,114.737968 259.458217,115.764706 C258.944848,116.791444 251.500998,120.641711 250.217575,120.898396 C248.934153,121.15508 239.853182,102.160428 239.853182,102.160428 L244.570516,102.160428 Z" id="Path" fill="#2F2E41"></path>
                <path d="M244.570516,102.160428 C244.570516,102.160428 259.971586,114.737968 259.458217,115.764706 C258.944848,116.791444 251.500998,120.641711 250.217575,120.898396 C248.934153,121.15508 239.853182,102.160428 239.853182,102.160428 L244.570516,102.160428 Z" id="Path" fill="#000000" opacity="0.1"></path>
                <path d="M227.886024,104.727273 C227.886024,104.727273 226.345917,111.657754 230.452869,114.481283 C234.559821,117.304813 241.490302,128.342246 242.260356,128.342246 C243.030409,128.342246 254.067843,122.438503 253.554474,121.411765 C253.041105,120.385027 247.394046,111.40107 247.394046,111.40107 L245.597254,101.903743 C245.597254,101.903743 229.9395,101.390374 227.886024,104.727273 Z" id="Path" fill="#2F2E41"></path>
                <path d="M244.570516,82.1390374 L246.880677,97.026738 L250.987629,107.550802 C250.987629,107.550802 257.148056,113.967914 253.554474,114.481283 C249.960891,114.994652 247.907415,107.550802 247.907415,107.550802 L244.570516,101.390374 L244.570516,82.1390374 Z" id="Path" fill="#FFB9B9"></path>
                <path d="M244.570516,82.1390374 L246.880677,97.026738 L250.987629,107.550802 C250.987629,107.550802 257.148056,113.967914 253.554474,114.481283 C249.960891,114.994652 247.907415,107.550802 247.907415,107.550802 L244.570516,101.390374 L244.570516,82.1390374 Z" id="Path" fill="#000000" opacity="0.1"></path>
                <path d="M235.971586,65.5828877 C235.971586,65.5828877 235.971586,70.973262 234.174794,71.486631 C232.378003,72 241.36196,78.9304813 241.36196,78.9304813 C241.36196,78.9304813 240.335222,69.9465241 243.928805,67.6363636 L235.971586,65.5828877 Z" id="Path" fill="#FFB9B9"></path>
                <path d="M235.971586,65.5828877 C235.971586,65.5828877 235.971586,70.973262 234.174794,71.486631 C232.378003,72 241.36196,78.9304813 241.36196,78.9304813 C241.36196,78.9304813 240.335222,69.9465241 243.928805,67.6363636 L235.971586,65.5828877 Z" id="Path" fill="#000000" opacity="0.1"></path>
                <circle id="Oval" fill="#FFB9B9" cx="240.078533" cy="64.0427807" r="5.90374332"></circle>
                <path d="M240.335222,76.3636364 C240.335222,76.3636364 234.944848,69.6898396 234.174794,69.9465241 C233.404741,70.2032086 227.757682,75.8502674 227.244313,77.6470588 C226.730944,79.4438503 225.704206,92.2780749 226.47426,94.8449198 C227.244313,97.4117647 227.244313,104.085561 226.987629,104.59893 C226.730944,105.112299 225.190837,106.395722 226.730944,106.395722 C228.271051,106.395722 233.661425,102.545455 237.255008,103.315508 C240.848591,104.085561 245.725597,103.058824 245.982281,102.545455 C246.238966,102.032086 245.725597,88.684492 245.982281,87.657754 C246.238966,86.631016 245.468912,81.4973262 245.212228,80.4705882 C244.955543,79.4438503 244.955543,75.3368984 242.388698,74.3101604 L241.294196,74.2020039 L241.232894,76.7410165 L240.335222,76.3636364 Z" id="Path" fill="#4B2BFF"></path>
                <path d="M229.041105,89.7112299 C229.041105,89.7112299 229.554474,97.6684492 233.404741,101.005348 C237.255008,104.342246 245.468912,109.989305 245.982281,111.016043 C246.49565,112.042781 251.372655,117.433155 252.399393,115.122995 C252.697364,114.402806 252.769158,113.609002 252.605239,112.847037 C252.303918,111.316236 251.384151,109.977669 250.063179,109.147498 L247.779073,107.679144 L236.484955,95.8716578 L235.971586,89.7112299 L229.041105,89.7112299 Z" id="Path" fill="#FFB9B9"></path>
                <path d="M243.800463,141.433155 C243.800463,141.433155 240.848591,140.791444 239.821853,142.588235 C238.795115,144.385027 240.848591,149.262032 240.848591,149.262032 C240.848591,149.262032 246.752335,161.582888 247.779073,160.042781 C248.80581,158.502674 247.009019,152.855615 247.009019,152.855615 C247.009019,152.855615 249.575864,147.208556 248.549126,146.951872 C247.522388,146.695187 243.800463,144.513369 243.800463,141.433155 Z" id="Path" fill="#2F2E41"></path>
                <path d="M261.89672,156.192513 C261.89672,156.192513 260.356613,155.42246 260.099928,156.192513 C259.843244,156.962567 258.303137,160.812834 260.099928,161.326203 C261.89672,161.839572 279.60795,162.352941 279.094581,161.326203 C278.581212,160.299465 275.757682,159.016043 273.960891,158.502674 C272.164099,157.989305 267.543778,154.139037 267.543778,154.139037 C267.543778,154.139037 264.976933,157.475936 261.89672,156.192513 Z" id="Path" fill="#2F2E41"></path>
                <path d="M246.025715,59.3571953 C245.914913,58.984712 245.670806,58.6660846 245.340003,58.4621493 C245.357081,58.0631376 245.308167,57.6640437 245.195233,57.2809668 C244.81803,56.1658165 243.924441,56.229736 243.081318,55.7367067 C242.715519,55.5227987 242.738113,55.3337429 242.547686,54.9824034 C242.298161,54.5218324 241.924423,54.1405068 241.468959,53.8817763 C240.928043,53.5371414 240.357053,53.182216 239.717154,53.1385976 C238.372384,53.0469382 237.341352,54.3117844 236.056063,54.7177206 C235.489535,54.8966297 234.880785,54.9040171 234.311266,55.0731671 C233.741747,55.242317 233.173548,55.6462075 233.088678,56.2342152 C233.049495,56.5056796 233.118622,56.7841668 233.07888,57.0555568 C232.99987,57.594951 232.526636,57.9727264 232.209841,58.4163825 C231.50929,59.3974717 231.589417,60.7834781 232.149646,61.8509416 C232.267702,62.0718193 232.402766,62.2831763 232.553614,62.483099 C232.600346,62.9876477 232.745237,63.4781994 232.980139,63.9271701 C233.540368,64.994631 234.504388,65.7923012 235.511428,66.4550118 C235.428952,66.1009931 235.378956,65.7401866 235.36206,65.3770806 C235.347846,65.2560714 235.363587,65.1334233 235.407896,65.0199247 C235.520044,64.7854896 235.816387,64.723141 236.042333,64.5947448 C236.51032,64.3288043 236.693842,63.7402652 236.707375,63.2021621 C236.720907,62.664059 236.606872,62.1250678 236.66325,61.5897651 C236.667693,61.3408237 236.777261,61.1053848 236.964855,60.9416779 C237.137572,60.8431478 237.334879,60.7961064 237.533473,60.8061099 C238.492333,60.7669912 239.494193,60.7493827 240.339966,60.2959367 C240.612732,60.11477 240.905939,59.9664488 241.213494,59.8540543 C241.932264,59.6666182 242.66689,60.1704051 243.08113,60.786987 C243.49537,61.4035688 243.701906,62.1373091 244.084104,62.7742563 C244.466302,63.4112034 245.126577,63.9792154 245.865536,63.9037502 C245.949712,63.9039401 246.029981,63.8682472 246.086223,63.8056171 C246.118099,63.7483547 246.132249,63.6829146 246.126877,63.6175983 L246.168164,60.7928933 C246.202467,60.3097116 246.154296,59.8242157 246.025715,59.3571953 L246.025715,59.3571953 Z" id="Path" fill="#2F2E41"></path>
                <path d="M231.351265,76.6203209 C231.351265,76.6203209 236.998324,79.1871658 236.741639,84.5775401 C236.484955,89.9679144 238.281746,90.4812834 233.91811,90.9946524 C229.554474,91.5080214 228.527736,90.9946524 228.271051,91.5080214 C228.014367,92.0213904 226.47426,79.7005348 227.500998,78.4171123 C228.527736,77.1336898 231.351265,76.6203209 231.351265,76.6203209 Z" id="Path" fill="#4B2BFF"></path>
                <circle id="Oval" fill="#2F2E41" cx="117.768372" cy="24.8983957" r="8.21390374"></circle>
                <path d="M123.287094,114.86631 L118.666773,127.44385 C118.666773,127.44385 114.816506,130.524064 117.126666,131.550802 C119.436827,132.57754 124.057147,130.524064 124.057147,130.524064 L127.65073,121.283422 L127.137361,114.86631 L123.287094,114.86631 Z" id="Path" fill="#2F2E41"></path>
                <path d="M123.287094,114.86631 L118.666773,127.44385 C118.666773,127.44385 114.816506,130.524064 117.126666,131.550802 C119.436827,132.57754 124.057147,130.524064 124.057147,130.524064 L127.65073,121.283422 L127.137361,114.86631 L123.287094,114.86631 Z" id="Path" fill="#000000" opacity="0.1"></path>
                <path d="M123.672121,40.2994652 L127.522388,40.8128342 C127.522388,40.8128342 129.319179,54.9304813 128.549126,55.9572193 C127.779073,56.9839572 123.928805,61.0909091 122.388698,60.0641711 C120.848591,59.0374332 123.672121,40.2994652 123.672121,40.2994652 Z" id="Path" fill="#575A89"></path>
                <path d="M86.837896,66.0962567 C86.837896,66.0962567 81.4475217,68.4064171 80.4207837,68.6631016 C79.3940458,68.9197861 77.8539388,71.486631 79.6507303,72 C81.4475217,72.513369 88.378003,67.3796791 88.378003,67.3796791 L86.837896,66.0962567 Z" id="Path" fill="#A0616A"></path>
                <path d="M125.083885,120 L127.907415,130.524064 C127.907415,130.524064 128.164099,134.374332 129.447522,134.631016 C130.730944,134.887701 134.581212,133.347594 134.581212,132.834225 C134.581212,132.320856 133.041105,128.213904 133.041105,128.213904 C133.041105,128.213904 133.041105,125.13369 131.500998,123.850267 C129.960891,122.566845 128.57338,118.267485 128.57338,118.267485 L125.083885,120 Z" id="Path" fill="#2F2E41"></path>
                <path d="M128.677468,95.8716578 C129.195971,97.0806417 129.1318,105.851551 128.564542,111.688556 C128.289872,114.52492 127.89714,116.668235 127.394046,116.919786 L123.715739,116.000856 L122.260356,115.636364 L122.221853,112.443209 L122.003671,94.8449198 L117.640035,76.6203209 L117.640035,72 L128.677468,73.026738 L130.428074,75.7758289 L130.47426,75.8502674 C130.47426,75.8502674 127.907415,94.0748663 128.677468,95.8716578 Z" id="Path" fill="#2F2E41"></path>
                <path d="M126.367308,101.518717 C126.916613,102.342674 127.832976,107.27615 128.564542,111.688556 C128.289872,114.52492 127.89714,116.668235 127.394046,116.919786 L123.715739,116.000856 C123.659268,115.882781 123.602813,115.759572 123.543778,115.636364 C123.074028,114.650695 122.632548,113.562353 122.221853,112.443209 L122.003671,94.8449198 L117.640035,76.6203209 L117.640035,72 L128.677468,73.026738 L130.428074,75.7758289 L120.20688,75.0802139 L122.51704,85.0909091 L125.34057,95.6149733 C125.34057,95.6149733 125.34057,99.9786096 126.367308,101.518717 Z" id="Path" fill="#000000" opacity="0.1"></path>
                <path d="M108.142709,61.7326203 C108.142709,61.7326203 104.549126,69.6898396 109.682816,80.7272727 C112.85951,87.5959713 115.686653,94.6209939 118.153404,101.775401 C118.153404,101.775401 119.950196,110.245989 122.51704,115.636364 C125.083885,121.026738 124.570516,121.283422 124.570516,121.283422 L128.677468,118.973262 C128.677468,118.973262 126.367308,103.058824 125.34057,101.518717 C124.313832,99.9786096 124.313832,95.6149733 124.313832,95.6149733 L121.490302,85.0909091 L119.180142,75.0802139 L130.47426,75.8502674 C130.47426,75.8502674 130.47426,61.2192513 125.34057,58.3957219 L108.142709,61.7326203 Z" id="Path" fill="#2F2E41"></path>
                <path d="M112.378003,28.7486631 C112.378003,28.7486631 112.378003,32.855615 111.094581,33.1122995 C109.811158,33.368984 107.244313,33.368984 106.47426,34.6524064 C105.704206,35.9358289 112.378003,52.8770053 112.378003,52.8770053 L119.308484,48.513369 L121.618645,36.9625668 C121.618645,36.9625668 118.281746,34.9090909 118.281746,33.8823529 L118.281746,29.2620321 L112.378003,28.7486631 Z" id="Path" fill="#A0616A"></path>
                <path d="M112.378003,28.7486631 C112.378003,28.7486631 112.378003,32.855615 111.094581,33.1122995 C109.811158,33.368984 107.244313,33.368984 106.47426,34.6524064 C105.704206,35.9358289 112.378003,52.8770053 112.378003,52.8770053 L119.308484,48.513369 L121.618645,36.9625668 C121.618645,36.9625668 118.281746,34.9090909 118.281746,33.8823529 L118.281746,29.2620321 L112.378003,28.7486631 Z" id="Path" fill="#000000" opacity="0.1"></path>
                <circle id="Oval" fill="#A0616A" cx="116.356607" cy="27.0802139" r="6.16042781"></circle>
                <path d="M113.148056,47.7433155 C113.148056,47.7433155 110.837896,33.1122995 110.324527,33.1122995 C109.811158,33.1122995 102.623992,34.6524064 102.110623,34.9090909 C101.597254,35.1657754 99.8004629,37.4759358 99.8004629,37.4759358 L103.394046,47.7433155 C103.394046,47.7433155 104.934153,54.9304813 105.960891,56.2139037 C106.987629,57.4973262 109.041105,61.0909091 108.014367,61.6042781 C106.987629,62.1176471 105.960891,62.8877005 106.987629,62.8877005 C108.014367,62.8877005 116.484955,61.3475936 116.998324,62.1176471 C117.511693,62.8877005 125.982281,59.2941176 125.982281,59.0374332 C125.982281,58.7807487 124.955543,46.7165775 124.955543,46.7165775 L127.522388,40.8128342 L119.821853,35.4224599 L113.148056,47.7433155 Z" id="Path" fill="#575A89"></path>
                <path d="M102.367308,36.1925134 L99.8004629,37.4759358 C99.8004629,37.4759358 92.6132971,53.9037433 92.0999281,54.1604278 C91.5865591,54.4171123 89.0197142,59.2941176 88.7630297,60.3208556 C88.5063452,61.3475936 87.9929763,64.684492 87.2229228,65.197861 C86.8098685,65.4783695 86.3813863,65.7354588 85.9395003,65.9679144 C85.9395003,65.9679144 87.4796073,68.5347594 88.2496607,68.5347594 C89.0197142,68.5347594 91.5865591,64.9411765 91.5865591,64.9411765 C91.5865591,64.9411765 97.233618,68.5347594 98.7737249,65.7112299 C100.313832,62.8877005 104.164099,44.9197861 104.164099,44.9197861 L102.367308,36.1925134 Z" id="Path" fill="#575A89"></path>
                <path d="M122.51704,44.0213904 C122.51704,44.0213904 118.923458,35.2941176 116.869982,36.3208556 C114.816506,37.3475936 118.410089,43.5080214 120.720249,44.5347594 L122.51704,44.0213904 Z" id="Path" fill="#A0616A"></path>
                <path d="M118.923458,44.2780749 L122.524872,43.4639384 L123.287094,47.3582888 C123.287094,47.3582888 126.623992,53.2620321 125.853939,55.828877 C125.083885,58.3957219 120.463564,62.5026738 118.923458,60.1925134 C117.383351,57.8823529 116.099928,54.2887701 117.126666,52.2352941 C118.153404,50.1818182 119.693511,45.3048128 118.923458,44.2780749 Z" id="Path" fill="#000000" opacity="0.1"></path>
                <path d="M119.693511,43.7647059 L123.294925,42.9505694 L124.057147,46.8449198 C124.057147,46.8449198 127.394046,52.7486631 126.623992,55.315508 C125.853939,57.8823529 121.233618,61.9893048 119.693511,59.6791444 C118.153404,57.368984 116.869982,53.7754011 117.89672,51.7219251 C118.923458,49.6684492 120.463564,44.7914439 119.693511,43.7647059 Z" id="Path" fill="#575A89"></path>
                <ellipse id="Oval" fill="#2F2E41" transform="translate(118.025053, 23.229945) rotate(-64.898700) translate(-118.025053, -23.229945) " cx="118.025053" cy="23.2299445" rx="2.95187166" ry="6.16042781"></ellipse>
                <circle id="Oval" fill="#2F2E41" cx="122.645378" cy="17.9679144" r="3.59358289"></circle>
                <path d="M119.308484,16.684492 C119.308735,14.8490415 120.692152,13.3087737 122.51704,13.1121523 C121.147743,12.9626007 119.813445,13.608909 119.081931,14.7760537 C118.350416,15.9431983 118.350416,17.4257857 119.081931,18.5929303 C119.813445,19.7600749 121.147743,20.4063833 122.51704,20.2568317 C120.692152,20.0602102 119.308735,18.5199425 119.308484,16.684492 L119.308484,16.684492 Z" id="Path" fill="#2F2E41"></path>
                <rect id="Rectangle" fill="#3F3D56" x="16.6346824" y="71.1016043" width="89.8395722" height="62.3743316"></rect>
                <rect id="Rectangle" fill="#F2F2F2" x="23.8218481" y="77.2620321" width="11.8074866" height="11.8074866"></rect>
                <rect id="Rectangle" fill="#4B2BFF" x="23.8218481" y="96.513369" width="11.8074866" height="11.8074866"></rect>
                <rect id="Rectangle" fill="#F2F2F2" x="23.8218481" y="115.764706" width="11.8074866" height="11.8074866"></rect>
                <rect id="Rectangle" fill="#F2F2F2" x="41.2763936" y="80.9839572" width="56.2139037" height="1.02673797"></rect>
                <rect id="Rectangle" fill="#F2F2F2" x="41.2763936" y="84.3208556" width="17.4545455" height="1.02673797"></rect>
                <rect id="Rectangle" fill="#F2F2F2" x="41.2763936" y="100.235294" width="56.2139037" height="1.02673797"></rect>
                <rect id="Rectangle" fill="#F2F2F2" x="41.2763936" y="103.572193" width="17.4545455" height="1.02673797"></rect>
                <rect id="Rectangle" fill="#F2F2F2" x="41.2763936" y="119.486631" width="56.2139037" height="1.02673797"></rect>
                <rect id="Rectangle" fill="#F2F2F2" x="41.2763936" y="122.823529" width="17.4545455" height="1.02673797"></rect>
                <path d="M254.067843,171.704632 C254.067843,176.929794 250.961991,178.754102 247.130118,178.754102 C247.041361,178.754102 246.952607,178.752819 246.864488,178.750904 C246.686972,178.747074 246.510735,178.738776 246.337055,178.726645 C242.878729,178.482083 240.192398,176.563911 240.192398,171.704632 C240.192398,166.676779 246.617375,160.331618 247.101384,159.861015 L247.102024,159.860376 C247.120543,159.841861 247.130118,159.83291 247.130118,159.83291 C247.130118,159.83291 254.067843,166.480107 254.067843,171.704632 Z" id="Path" fill="#4B2BFF"></path>
                <path d="M246.877253,177.954648 L249.414805,174.409481 L246.870864,178.344157 L246.86448,178.750904 C246.686965,178.747074 246.510728,178.738776 246.337047,178.726645 L246.610339,173.499563 L246.608427,173.458699 L246.612896,173.451673 L246.639078,172.957445 L244.088758,169.01319 L246.64674,172.587093 L246.653126,172.69182 L246.859375,168.742455 L244.676209,164.666664 L246.88619,168.049643 L247.101379,159.86102 L247.102018,159.832926 L247.102018,159.860391 L247.06626,166.317289 L249.239849,163.757388 L247.057319,166.873461 L246.999853,170.409687 L249.029765,167.015851 L246.991552,170.930095 L246.959625,172.896157 L249.905206,168.172246 L246.948131,173.581948 L246.877253,177.954648 Z" id="Path" fill="#3F3D56"></path>
                <path d="M28.9555431,136.025488 C28.9555431,141.25065 25.8496916,143.074958 22.0178182,143.074958 C21.9290618,143.074958 21.840308,143.073674 21.7521882,143.07176 C21.5746729,143.06793 21.3984359,143.059631 21.2247555,143.0475 C17.7664299,142.802939 15.0800984,140.884767 15.0800984,136.025488 C15.0800984,130.997634 21.5050755,124.652473 21.9890849,124.18187 L21.9897241,124.181231 C22.0082439,124.162717 22.0178182,124.153766 22.0178182,124.153766 C22.0178182,124.153766 28.9555431,130.800963 28.9555431,136.025488 Z" id="Path" fill="#4B2BFF"></path>
                <path d="M21.7649532,142.275504 L24.3025052,138.730337 L21.7585643,142.665012 L21.7521805,143.07176 C21.5746652,143.06793 21.3984282,143.059631 21.2247478,143.0475 L21.4980398,137.820418 L21.4961275,137.779554 L21.5005964,137.772529 L21.5267782,137.278301 L18.9764586,133.334046 L21.5344402,136.907949 L21.5408265,137.012676 L21.7470751,133.06331 L19.5639093,128.98752 L21.7738909,132.370498 L21.9890798,124.181876 L21.9897189,124.153781 L21.9897189,124.181247 L21.9539602,130.638145 L24.1275491,128.078243 L21.9450199,131.194316 L21.8875534,134.730543 L23.9174657,131.336707 L21.8792522,135.25095 L21.8473258,137.217012 L24.7929061,132.493101 L21.8358314,137.902804 L21.7649532,142.275504 Z" id="Path" fill="#3F3D56"></path>
            </g>
        </g>
    </g>
</svg>