<?xml version="1.0" encoding="UTF-8"?>
<svg width="227px" height="249px" viewBox="0 0 227 249" version="1.1" xmlns="http://www.w3.org/2000/svg" xmlns:xlink="http://www.w3.org/1999/xlink">
    <!-- Generator: Sketch 56.3 (81716) - https://sketch.com -->
    <title>undraw_referral_4ki4</title>
    <desc>Created with Sketch.</desc>
    <g id="Page-1" stroke="none" stroke-width="1" fill="none" fill-rule="evenodd">
        <g id="Main-Logout-Copy-4" transform="translate(-68.000000, -143.000000)" fill-rule="nonzero">
            <g id="undraw_referral_4ki4" transform="translate(68.000000, 143.000000)">
                <path d="M199.937265,224.234987 L127.127874,224.476148 C107.811623,218.672069 91.9858458,198.512948 91.8849661,168.288446 C91.8663489,163.735244 92.2102991,159.187754 92.9143186,154.689267 L151.5589,141.514004 L196.799566,131.350886 C200.133267,134.336175 203.239614,137.566005 206.092747,141.013488 L162.832191,163.856218 L142.424279,174.63277 L165.356627,166.721169 L212.953962,150.30063 C215.922207,154.838867 218.566945,159.580639 220.868522,164.490712 L206.50735,179.33272 L222.753199,168.697144 C222.822634,168.860065 222.891775,169.023247 222.960622,169.186692 C233.25665,193.629633 220.48194,224.16695 199.937265,224.234987 Z" id="Path" fill="#F2F2F2"></path>
                <path d="M187.971853,124.509973 C176.961275,127.672213 163.424488,131.667628 149.50649,135.820403 C129.383088,141.826413 108.463657,148.164603 93.2336492,152.797714 L93.2435915,152.743396 C93.8065318,149.492266 95.1300429,146.420256 97.1061607,143.777964 C108.388079,129.109385 122.753804,118.862205 138.742251,115.05673 L138.743655,115.05673 C143.23961,113.984282 147.844422,113.434889 152.466491,113.419148 C165.18695,113.377352 177.235897,117.367043 187.971853,124.509973 Z" id="Path" fill="#F2F2F2"></path>
                <ellipse id="Oval" fill="#3F3D56" cx="114.421763" cy="225.69968" rx="72.4235294" ry="5.4"></ellipse>
                <path d="M103.621763,136.206366 C103.621763,175.225947 80.4252431,188.850128 51.8108813,188.850128 C23.1965195,188.850128 0,175.225947 0,136.206366 C0,97.1867859 51.8108813,47.5477211 51.8108813,47.5477211 C51.8108813,47.5477211 103.621763,97.1867827 103.621763,136.206366 Z" id="Path" fill="#F2F2F2"></path>
                <polygon id="Path" fill="#3F3D56" points="49.9236353 182.881165 50.4541059 150.225459 72.5372471 109.825518 50.5373294 145.102765 50.7758824 130.419212 65.9953059 101.190282 50.8387765 126.533435 50.8387765 126.533753 51.2679176 100.124894 67.5654353 76.8550235 51.3352588 95.9719765 51.6033529 47.5476353 49.9188706 111.652941 50.0573647 109.008212 33.4876235 83.6456824 49.7914941 114.084847 48.2477294 143.579012 48.2016706 142.796012 29.0996471 116.1054 48.1438588 145.561765 47.9507294 149.250282 47.9161059 149.305553 47.9319882 149.608588 44.0150824 224.437341 49.2483176 224.437341 49.8763059 185.786682 68.8738235 156.403059"></polygon>
                <path d="M165.463383,9.253062 L165.463383,215.15187 C165.458289,220.259056 161.317512,224.398606 156.210323,224.398606 L72.6214998,224.398606 C70.1672222,224.402889 67.8121365,223.430268 66.0761017,221.695426 C64.3400668,219.960583 63.3658292,217.606165 63.3684357,215.151886 L63.3684357,9.253062 C63.3684357,6.79893339 64.3430346,4.44525879 66.0783656,2.7099278 C67.8136966,0.974596814 70.1673712,2.74176097e-06 72.6214998,2.74176097e-06 L85.1304409,2.74176097e-06 L85.1304409,1.60412082 C85.1299145,5.81170318 88.5400352,9.22324592 92.7476174,9.22447376 L135.2615,9.22447376 C136.887893,9.22794527 138.472005,8.7065918 139.778441,7.73788553 C140.042532,7.54578183 140.293013,7.33563278 140.528088,7.10894435 C142.031921,5.67299081 142.88148,3.68341578 142.878676,1.60412082 L142.878676,2.74176097e-06 L156.210323,2.74176097e-06 C158.664617,2.74176097e-06 161.018606,0.973882882 162.754054,2.70933104 C164.489502,4.44477919 165.463383,6.7987678 165.463383,9.253062 Z" id="Path" fill="#3F3D56"></path>
                <path d="M110.613116,80.6189982 C110.615903,86.3650144 107.200924,88.3726994 102.987523,88.3747466 C102.889654,88.3747466 102.792255,88.3737466 102.695326,88.3716099 C102.500053,88.3674932 102.306818,88.3586901 102.11562,88.3452007 C98.3127494,88.0777991 95.3570086,85.9701918 95.3544126,80.6264089 C95.3517261,75.0962594 102.416257,68.1138815 102.946073,67.5976002 L102.947004,67.5971301 C102.967133,67.5774551 102.977435,67.5676175 102.977435,67.5676175 C102.977435,67.5676175 110.610338,74.8734491 110.613116,80.6189982 Z" id="Path" fill="#6C63FF"></path>
                <path d="M102.709414,87.4959554 L105.497881,83.5958689 L102.702587,87.9239499 L102.695316,88.3716099 C102.500044,88.3674932 102.306809,88.3586901 102.11561,88.3452007 L102.413443,82.5966942 L102.411083,82.5522236 L102.416222,82.5437901 L102.444528,82.0005946 L99.6380111,77.6644645 L102.452755,81.5936728 L102.459838,81.7088644 L102.684834,77.3656412 L100.281888,72.8846227 L102.713962,76.6023639 L102.946064,67.5976098 L102.946982,67.5676429 L102.946982,67.5971396 L102.911104,74.6983207 L105.299263,71.8819825 L102.901094,75.3098739 L102.83977,79.1988046 L105.070147,75.4656893 L102.831161,79.7705439 L102.797094,81.9329866 L106.033997,76.736538 L102.784823,82.6873571 L102.709414,87.4959554 Z" id="Path" fill="#3F3D56"></path>
                <polygon id="Path" fill="#6C63FF" points="150.6276 153.963847 78.2040706 153.963847 78.2040706 161.040388 78.2040706 171.8172 78.2040706 177.880447 84.2676353 171.8172 150.6276 171.8172"></polygon>
                <rect id="Rectangle" fill="#FFFFFF" x="94.3617981" y="158.298697" width="40.7435305" height="3.30352941"></rect>
                <rect id="Rectangle" fill="#FFFFFF" x="94.3617981" y="163.253991" width="40.7435305" height="3.30352941"></rect>
                <polygon id="Path" fill="#6C63FF" points="78.2040706 121.405024 150.6276 121.405024 150.6276 128.481565 150.6276 139.258376 150.6276 145.321624 144.564353 139.258376 78.2040706 139.258376"></polygon>
                <rect id="Rectangle" fill="#FFFFFF" x="90.5500334" y="126.057521" width="40.7435305" height="3.30352941"></rect>
                <rect id="Rectangle" fill="#FFFFFF" x="90.5500334" y="131.012815" width="40.7435305" height="3.30352941"></rect>
                <path d="M75.3453265,46.5180681 L75.3453265,104.835502 L153.486503,104.835502 L153.486503,46.5180681 L75.3453265,46.5180681 Z M85.4145254,47.2522744 C85.9236025,47.2522744 86.3825526,47.5589415 86.5773677,48.0292676 C86.7721828,48.4995936 86.6644973,49.0409622 86.304525,49.4009336 C85.9445526,49.760905 85.4031839,49.8685891 84.9328583,49.6737728 C84.4625327,49.4789565 84.1558744,49.0200057 84.1558744,48.5109286 C84.1558744,48.1771125 84.2884784,47.8569679 84.5245217,47.620924 C84.760565,47.3848801 85.0807093,47.2522744 85.4145254,47.2522744 L85.4145254,47.2522744 Z M77.8626254,49.7695796 C77.1674916,49.7695796 76.6039744,49.2060624 76.6039744,48.5109286 C76.6039744,47.8157948 77.1674916,47.2522775 77.8626254,47.2522775 C78.5577592,47.2522775 79.1212765,47.8157948 79.1212765,48.5109286 C79.1212765,49.2060599 78.5577567,49.7695796 77.8626254,49.7695796 L77.8626254,49.7695796 Z M80.3799275,48.5109286 C80.3799275,48.0018515 80.6865884,47.5429014 81.1569144,47.3480863 C81.6272405,47.1532712 82.168609,47.2609567 82.5285804,47.620929 C82.8885518,47.9809014 82.9962359,48.5222701 82.8014196,48.9925957 C82.6066034,49.4629213 82.1476525,49.7695796 81.6385754,49.7695796 C81.3047593,49.7695796 80.9846154,49.6369723 80.7485727,49.4009278 C80.5125299,49.1648833 80.3799275,48.8447383 80.3799275,48.5109222 L80.3799275,48.5109286 Z M123.698458,88.4730536 L81.6385754,88.4730536 L81.6385754,57.2165831 L123.698458,57.2165831 L123.698458,88.4730536 Z" id="Shape" fill="#F2F2F2"></path>
                <rect id="Rectangle" fill="#FFFFFF" x="149.291005" y="47.5669355" width="2.51729894" height="1"></rect>
                <rect id="Rectangle" fill="#FFFFFF" x="149.291005" y="48.5109222" width="2.51729894" height="1"></rect>
                <rect id="Rectangle" fill="#FFFFFF" x="149.291005" y="49.4549089" width="2.51729894" height="1"></rect>
                <rect id="Rectangle" fill="#FFFFFF" x="130.306368" y="56.6921446" width="18.9846339" height="1"></rect>
                <rect id="Rectangle" fill="#FFFFFF" x="130.306368" y="59.9436561" width="18.9846339" height="1"></rect>
                <rect id="Rectangle" fill="#FFFFFF" x="130.306368" y="63.1951708" width="18.9846339" height="1"></rect>
                <rect id="Rectangle" fill="#FFFFFF" x="130.306368" y="66.4466824" width="18.9846339" height="1"></rect>
                <rect id="Rectangle" fill="#FFFFFF" x="130.306368" y="69.6981939" width="18.9846339" height="1"></rect>
                <rect id="Rectangle" fill="#FFFFFF" x="130.306368" y="72.9497054" width="18.9846339" height="1"></rect>
                <rect id="Rectangle" fill="#FFFFFF" x="130.306368" y="76.2012169" width="18.9846339" height="1"></rect>
                <rect id="Rectangle" fill="#FFFFFF" x="130.306368" y="79.4527285" width="18.9846339" height="1"></rect>
                <rect id="Rectangle" fill="#FFFFFF" x="130.306368" y="82.7042432" width="18.9846339" height="1"></rect>
                <rect id="Rectangle" fill="#FFFFFF" x="130.306368" y="85.9557547" width="18.9846339" height="1"></rect>
                <circle id="Oval" fill="#FFFFFF" cx="84.1558744" cy="90.6756914" r="1.25865106"></circle>
                <circle id="Oval" fill="#FFFFFF" cx="88.4562628" cy="90.6756914" r="1.25865106"></circle>
                <circle id="Oval" fill="#FFFFFF" cx="92.7566481" cy="90.6756914" r="1.25865106"></circle>
                <rect id="Rectangle" fill="#6C63FF" x="130.306368" y="96.8640533" width="18.9846339" height="5.34926224"></rect>
                <path d="M46.0291966,170.106369 L45.3332732,194.463641 L37.9101028,222.996446 C37.9101028,222.996446 39.5339146,227.867901 38.3740518,229.027773 C37.2141889,230.187646 31.8787793,232.275397 31.8787793,232.275397 L36.2862815,171.498209 L46.0291966,170.106369 Z" id="Path" fill="#2F2E41"></path>
                <path d="M29.9128204,228.908903 C29.9128204,228.908903 27.2656038,234.732778 30.9717064,235.262222 C34.6778089,235.791667 51.7964728,237.203513 50.7375868,234.203336 C49.6787008,231.20316 36.7955809,228.379459 36.7955809,228.379459 L29.9128204,228.908903 Z" id="Path" fill="#2F2E41"></path>
                <path d="M20.0481004,148.532784 C20.0481004,148.532784 22.8317876,163.611096 24.6875802,166.162809 C26.5433728,168.714522 23.7596855,187.272448 23.7596855,187.272448 C23.7596855,187.272448 19.5841514,213.949461 21.439944,218.124992 C23.2957366,222.300523 22.8317876,220.908679 22.5998164,223.228421 C22.3678451,225.548162 21.9038929,227.403955 22.5998164,229.491719 C23.2957398,231.579483 23.2957366,231.347512 23.5277111,232.507384 C23.7596855,233.667256 23.5277111,239.930551 23.5277111,239.930551 C23.5277111,239.930551 33.5025942,243.410162 35.1264124,238.306739 C35.1264124,238.306739 32.8066708,235.059116 33.5026006,232.50739 C34.2282278,229.939476 34.6180959,227.28837 34.6624698,224.620271 L34.6624698,219.748798 L45.33327,179.849278 L47.8849828,165.466889 C47.8849828,165.466889 47.1890626,150.852523 44.6373593,149.460679 C42.085656,148.068835 20.0481004,148.532784 20.0481004,148.532784 Z" id="Path" fill="#2F2E41"></path>
                <path d="M24.2236345,238.770682 C24.2236345,238.770682 20.7440238,246.425824 25.6154781,247.121747 C30.4869325,247.81767 52.9884116,249.67346 51.596568,245.729903 C50.2047244,241.786347 33.2706198,238.074758 33.2706198,238.074758 L24.2236345,238.770682 Z" id="Path" fill="#2F2E41"></path>
                <circle id="Oval" fill="#FFB9B9" cx="28.6335604" cy="72.4549796" r="9.27895976"></circle>
                <path d="M22.1132128,76.5553172 L22.2859461,88.4051852 L33.6620753,88.4437062 C33.6620753,88.4437062 30.7749208,79.1673671 32.0681224,77.2276108 C33.3613239,75.2878546 22.1132128,76.5553172 22.1132128,76.5553172 Z" id="Path" fill="#FFB9B9"></path>
                <path d="M39.069972,94.9467833 C39.069972,94.9467833 30.9508814,84.507948 24.6875802,88.9154566 C18.4242791,93.3229652 16.1045407,103.761794 16.1045407,103.761794 L17.4963875,132.990523 C17.4963875,132.990523 20.9759982,137.166054 18.8882312,139.949745 C16.8004641,142.733435 15.6406076,142.037509 17.2644194,144.125276 C18.8882312,146.213043 20.7440301,147.836861 20.0481067,148.532784 C19.3521833,149.228708 20.7440301,149.692654 20.7440301,149.692654 L45.3332764,150.388574 C45.3332764,150.388574 44.6373529,149.460679 46.72512,146.676992 C48.8128871,143.893304 46.2611711,140.181719 46.72512,138.789872 C47.1890689,137.398026 47.6530179,139.021847 47.8849892,135.774211 C48.1169605,132.526574 39.069972,94.9467833 39.069972,94.9467833 Z" id="Path" fill="#3F3D56"></path>
                <path d="M36.7502305,154.796082 C36.7502305,154.796082 37.2141794,160.595431 40.6937901,161.523329 C41.9986429,161.871289 42.9772849,161.207988 43.6908759,160.242942 C45.0541684,158.350595 45.1263239,155.818403 43.873002,153.851495 L43.0135285,152.476341 L36.7502305,154.796082 Z" id="Path" fill="#FFB9B9"></path>
                <path d="M15.2926316,83.2320932 C15.2926316,83.2320932 15.0606604,87.8715731 15.2926316,88.5674965 C15.5246029,89.2634199 15.7565806,89.9593401 15.2926316,90.6552635 C14.8286827,91.3511869 15.0606604,93.6709253 15.5246061,93.9028871 C15.9885519,94.1348488 14.5967114,96.2226254 15.0606604,97.6144691 C15.5246093,99.0063127 15.9885551,99.4702616 16.2205295,99.9342106 C16.452504,100.39816 16.8261872,101.229391 16.8261872,101.229391 C16.8261872,101.229391 23.6436967,86.7116912 29.2110745,90.1913019 C34.7784522,93.6709126 39.1859576,94.8307818 39.1859576,94.8307818 C39.1859576,94.8307818 36.1702959,78.5926133 15.2926316,83.2320932 Z" id="Path" fill="#3F3D56"></path>
                <path d="M25.3835036,94.0188854 C25.3835036,94.0188854 17.9603333,94.7148088 18.4242822,104.457721 C18.8882312,114.200633 17.7283588,129.510916 17.7283588,129.510916 C17.7283588,129.510916 30.4869325,148.996733 32.5746995,150.388586 C34.6624666,151.78044 34.8944379,151.548459 34.6624634,152.708328 C34.4304889,153.868197 34.1985176,154.796095 35.1264124,155.72399 C35.6741975,156.275527 36.2993489,156.744391 36.9822049,157.115833 C36.9822049,157.115833 44.4053753,154.564121 43.7094519,152.244379 C43.0135285,149.924638 39.7658922,146.213056 39.7658922,146.213056 C39.7658922,146.213056 34.1985176,137.166067 33.9665432,135.77422 C33.7345687,134.382373 33.7345687,134.614351 33.0386453,133.918428 C32.3427219,133.222504 30.4869325,130.438817 30.4869325,129.046973 L30.4869325,124.639458 L32.4317425,101.085646 C32.6102939,99.1452895 31.9513646,97.2210837 30.6208556,95.7974929 C29.5168447,94.6424615 27.8482288,93.7231179 25.3835036,94.0188854 Z" id="Path" fill="#3F3D56"></path>
                <path d="M34.6175799,65.2992268 C35.8460068,65.6395199 37.1632092,65.337923 38.1211793,64.4970155 C39.0279505,63.6353947 39.3327296,62.1425329 38.6875249,61.0709252 C38.130372,60.1455589 37.0467762,59.6929945 36.0156494,59.3712752 C33.7411495,58.6623304 31.3726017,58.3010559 28.9901764,58.2996793 C27.8543594,58.2993625 26.6683479,58.3961527 25.6963955,58.9838506 C25.2154779,59.2746406 24.8081718,59.6740087 24.3326986,59.9736229 C23.4584259,60.5245405 22.4086151,60.7076132 21.4487238,61.0903302 C19.4628137,61.8974929 17.9246602,63.5263799 17.2325181,65.555244 C17.0123381,66.2353479 16.8747618,66.9394667 16.8227534,67.6524293 C16.6658829,69.6054356 17.0109948,71.566117 17.8252984,73.3481809 C19.1196656,76.1705164 21.5832219,78.5436162 21.9313122,81.6290238 C23.2574506,80.5157756 23.6461775,78.6484175 24.6733465,77.2545409 C25.4379747,76.2238594 26.529543,75.4829581 27.7697096,75.1528864 C28.1162823,75.1070375 28.4420507,74.9614209 28.7073561,74.7337638 C28.8858899,74.4869683 28.9879282,74.193131 29.0007794,73.8888004 L29.6374426,69.3047372 C29.7670108,68.3718078 29.9420407,67.3522941 30.6579441,66.7402422 C31.1069876,66.4060439 31.6272618,66.1802657 32.1780695,66.0805687 C33.4808075,65.7566186 34.8079508,65.5402088 36.1461166,65.4335216" id="Path" fill="#2F2E41"></path>
                <path d="M18.856584,132.824597 L31.8787761,149.723738 C31.8787761,149.723738 19.8879268,139.700214 18.856584,132.824597 Z" id="Path" fill="#000000" opacity="0.1"></path>
                <polygon id="Path" fill="#000000" opacity="0.1" points="31.3558941 114.114388 31.2326471 130.074247 38.7958235 141.419012 32.6077412 128.699153"></polygon>
                <path d="M172.097358,219.894598 L170.590209,218.774892 C170.590209,218.774892 169.592572,224.347549 170.70581,225.182468 C171.819049,226.017388 175.993681,227.408945 175.993681,229.078803 C175.993681,230.748661 185.456212,232.975141 185.734522,230.470351 C186.012831,227.965561 184.899593,226.574016 184.899593,226.574016 C184.899593,226.574016 180.446635,222.121062 179.890016,221.286146 C179.333396,220.45123 177.941848,218.781359 177.941848,218.781359 L172.097358,219.894598 Z" id="Path" fill="#2F2E41"></path>
                <path d="M194.362133,150.595486 C194.362133,150.595486 194.320382,150.840392 194.24805,151.288474 C194.181227,151.686457 194.089395,152.248648 193.978066,152.941637 C192.809144,160.074719 189.399851,181.073184 189.630869,181.766173 C189.909179,182.601102 191.857346,185.662511 189.630869,186.49744 C189.328901,186.672958 189.087269,186.935936 188.937881,187.251648 C188.459801,188.138802 188.065673,189.068692 187.760636,190.029189 C186.433094,193.880977 185.013685,200.045554 184.192685,204.314813 C183.833655,206.190636 183.588778,207.699069 183.516414,208.489461 C183.491254,208.672127 183.488447,208.857179 183.508054,209.040524 C183.786367,210.153763 181.838183,214.050098 181.003267,215.163337 C180.168351,216.276575 178.77679,217.389817 179.0551,218.503056 C179.333409,219.616294 172.097358,222.6777 171.262429,220.729533 C170.4275,218.781365 170.4275,217.668127 170.149191,217.111507 C169.870881,216.554888 169.592572,212.65855 170.98412,212.101931 C172.375668,211.545311 171.540739,201.804474 172.932287,199.856319 C173.397043,199.207852 174.106746,197.011983 174.849843,194.370827 C175.14205,193.335523 175.437074,192.233409 175.726527,191.128528 C176.900986,186.600424 177.941861,182.044495 177.941861,182.044495 L177.663551,149.48226 L192.970585,147.534092 L193.362978,148.399633 L194.145044,150.116798 L194.362133,150.595486 Z" id="Path" fill="#2F2E41"></path>
                <path d="M195.197062,204.030951 C195.197062,204.030951 197.423539,201.804474 198.536778,204.030951 C199.650017,206.257428 200.763258,214.885027 202.711426,216.833198 C204.659593,218.781368 207.16438,228.522203 204.381296,229.07881 C201.598213,229.635416 198.536791,228.243881 198.258481,226.574023 C197.980171,224.904165 192.135669,216.276566 192.135669,215.441634 C192.135669,214.606702 196.031985,211.545311 196.031985,211.545311 L195.197062,204.030951 Z" id="Path" fill="#2F2E41"></path>
                <path d="M160.964969,135.288452 C160.964969,135.288452 164.582995,167.850687 165.417924,170.912096 C166.252853,173.973506 170.705794,185.662511 172.097358,187.610678 C173.488922,189.558846 182.394815,205.422499 183.508054,206.257428 C184.621292,207.092357 186.847773,209.318834 186.847773,209.318834 C186.847773,209.318834 191.022418,213.493479 191.579037,214.328408 C192.135656,215.163337 196.866907,212.658537 197.14523,210.988692 C197.423552,209.318847 196.86692,206.535738 196.58861,205.422499 C196.310301,204.30926 197.14523,202.639403 196.310301,201.804474 C195.475372,200.969545 191.300727,196.794897 191.300727,194.846732 C191.300727,192.898568 184.064676,181.487866 181.281577,178.983079 C178.498477,176.478293 179.0551,172.303648 179.0551,172.303648 L179.0551,155.326753 L194.362133,150.595486 C194.362133,150.595486 193.527204,137.236623 191.579037,137.236623 C189.630869,137.236623 164.026375,132.783665 160.964969,135.288452 Z" id="Path" fill="#2F2E41"></path>
                <circle id="Oval" fill="#9F616A" cx="183.508054" cy="79.62651" r="9.18422153"></circle>
                <path d="M180.446648,86.862564 C180.446648,86.862564 179.333409,91.0372119 177.941861,92.1504505 C176.550313,93.2636891 181.559886,97.9949531 181.559886,97.9949531 L191.022418,98.5515724 L192.692288,93.2637018 C192.692288,93.2637018 189.630882,87.1408864 190.465811,83.2445513 C191.30074,79.3482162 180.446648,86.862564 180.446648,86.862564 Z" id="Path" fill="#9F616A"></path>
                <path d="M176.550313,91.5938312 C176.550313,91.5938312 179.0551,91.8721408 179.611719,92.7070698 C180.168338,93.5419987 184.064676,96.0467855 187.126082,95.4901662 C190.187489,94.9335469 192.135656,94.098618 192.692275,94.3769276 C193.248895,94.6552373 194.362146,100.49974 194.362146,100.49974 L191.30074,109.405652 L191.857359,133.896904 L192.692288,140.576339 C192.692288,140.576339 194.362146,138.349861 187.682714,139.74141 C181.00327,141.132958 172.375681,138.628171 169.592584,138.349861 C166.809488,138.071552 162.078221,137.236623 161.799911,135.566762 C161.521601,133.896901 162.634827,127.774092 162.634827,127.774092 L167.087782,109.127342 L169.870891,99.1081916 L176.550313,91.5938312 Z" id="Path" fill="#3F3D56"></path>
                <path d="M179.182816,90.3377054 C179.182816,90.3377054 176.828622,89.0890348 175.993693,90.2022829 C175.158764,91.3155311 164.582995,92.9853794 164.582995,93.8203084 C164.582995,94.6552373 162.356518,117.198322 162.913124,119.146489 C163.469731,121.094657 161.799886,123.321137 161.799886,123.321137 L159.851718,131.670427 C159.851718,131.670427 154.563847,147.53408 156.790312,148.090699 C159.016776,148.647318 160.964957,148.090699 161.799886,148.090699 C162.634814,148.090699 162.356505,137.514932 164.582982,134.731833 C166.809459,131.948733 169.870868,124.990995 170.427488,123.599447 C170.984107,122.207899 177.941848,103.004527 177.663539,100.77805 C177.385229,98.5515724 179.182816,90.3377054 179.182816,90.3377054 Z" id="Path" fill="#D0CDE1"></path>
                <path d="M190.744114,91.5938312 C190.744114,91.5938312 192.970591,91.5938312 193.248901,92.1504505 C193.527211,92.7070698 196.310307,96.3250952 197.423546,97.1600241 C198.536784,97.9949531 202.433123,101.612978 202.433123,102.447895 C202.433123,103.282811 194.36214,109.405636 194.36214,109.405636 C194.36214,109.405636 191.022424,125.825908 192.692269,131.392101 C194.362114,136.958294 196.866914,150.31716 195.753675,151.152089 C194.640437,151.987018 192.13565,152.265328 192.13565,151.152089 C192.13565,150.038851 190.465779,138.071536 189.074244,135.566736 C187.682708,133.061937 183.508048,117.198296 185.177909,112.745342 C186.84777,108.292388 190.744114,91.5938312 190.744114,91.5938312 Z" id="Path" fill="#D0CDE1"></path>
                <path d="M154.007228,119.14648 C154.007228,119.14648 153.728918,127.774092 156.790325,132.227036 C158.775964,135.203641 160.45442,138.374061 161.799898,141.689574 C161.799898,141.689574 166.809472,140.298026 167.644401,138.628168 C168.47933,136.95831 173.767216,138.349858 173.767216,137.793239 C173.767216,137.23662 167.366091,134.45352 166.809475,133.896901 C166.252859,133.340281 164.304688,133.340281 163.19145,132.22703 C162.078211,131.113779 161.799901,128.609005 161.799901,128.609005 L160.686663,121.372954 L154.007228,119.14648 Z" id="Path" fill="#9F616A"></path>
                <path d="M177.182449,73.9637269 C176.471167,73.9465772 175.770645,73.7861951 175.122753,73.4921672 C173.723581,72.7376029 173.352557,70.5888 174.417681,69.4087348 C174.711361,69.1084778 175.039837,68.8443552 175.396136,68.6219739 L177.511665,67.1820448 C178.44731,66.5451942 179.405074,65.8979089 180.496347,65.597688 C181.496575,65.3700882 182.527522,65.3092267 183.547582,65.4175599 C185.536909,65.4877928 187.505581,65.8457476 189.392304,66.4802799 C191.257861,67.165092 192.998096,68.3107592 194.127964,69.9455901 C195.919157,72.5372947 195.943774,76.0326607 194.957242,79.0246736 C193.97071,82.0166866 192.096738,84.6220818 190.25024,87.1746808 L189.292143,82.4998691 C189.206807,82.0834909 189.09645,81.6271433 188.750148,81.3807159 C187.889439,80.768232 186.836592,82.025784 185.780234,82.01763 C185.101483,82.012392 184.531624,81.4541241 184.274396,80.8259707 C184.063719,80.1797826 183.951241,79.5056289 183.940721,78.8260458 C183.814669,77.3938991 183.314095,75.4011752 181.957844,74.6113458 C180.694038,73.875348 178.603008,74.0927488 177.182449,73.9637269 Z" id="Path" fill="#2F2E41"></path>
                <path d="M177.697657,150.820107 C177.697657,150.820107 178.637635,178.008992 179.194254,178.843921 C179.750874,179.67885 179.194254,150.734641 179.194254,150.734641 L177.697657,150.820107 Z" id="Path" fill="#000000" opacity="0.1"></path>
                <path d="M166.809472,93.8203084 L164.582995,93.8203084 C164.582995,93.8203084 155.120467,106.622555 156.233705,107.457484 C157.346944,108.292413 156.233705,110.51889 156.233705,110.51889 L154.007228,114.693535 C154.007228,114.693535 151.224128,117.198322 152.059057,117.754941 C152.893986,118.31156 154.007228,120.538038 154.007228,120.538038 C154.007228,120.538038 159.573421,119.703109 161.243279,123.042828 L164.852903,118.485898 L166.809472,93.8203084 Z" id="Path" fill="#D0CDE1"></path>
                <path d="M192.135656,117.754941 C192.135656,117.754941 186.012844,118.033251 179.0551,113.580296 L172.097358,110.51889 C172.097358,110.51889 165.974543,101.056359 165.417924,102.726217 C164.861304,104.396075 166.252853,107.735794 166.252853,107.735794 C166.252853,107.735794 157.134832,109.473174 157.63782,112.135444 C157.741427,112.683817 162.356518,111.353819 162.356518,111.353819 C162.356518,111.353819 161.521589,116.64169 166.252853,116.920012 C170.984117,117.198335 172.375668,116.085083 172.375668,116.085083 C172.375668,116.085083 192.413966,132.783665 195.753682,127.495782 C199.093397,122.207899 192.135656,117.754941 192.135656,117.754941 Z" id="Path" fill="#9F616A"></path>
                <path d="M199.371726,101.334669 L202.433132,102.447907 L202.433132,110.7972 L203.546371,112.467071 C203.546371,112.467071 203.268061,115.806786 202.433132,116.641715 C201.598203,117.476644 199.928345,117.198335 200.484965,119.146502 C200.819496,120.416629 200.913884,121.738061 200.763274,123.04284 C200.763274,123.04284 195.753697,129.443962 195.475388,128.609033 C195.197078,127.774104 191.300743,117.476644 190.744124,117.476644 C190.187504,117.476644 196.310317,101.334669 196.310317,101.334669 L199.371726,101.334669 Z" id="Path" fill="#D0CDE1"></path>
                <path d="M162.773982,143.49859 C162.773982,143.49859 159.896319,140.715493 161.335152,140.576339 C162.773985,140.437184 167.783556,137.654087 168.618481,139.045636 C169.453407,140.437184 162.773982,143.49859 162.773982,143.49859 Z" id="Path" fill="#2F2E41"></path>
                <path d="M66.9250525,217.476163 C66.9250525,224.613235 62.6824186,227.105237 57.4484114,227.105237 C57.3271634,227.105237 57.206106,227.103889 57.0852392,227.101193 C56.8427315,227.095996 56.6025395,227.08445 56.3652318,227.068282 C51.6416389,226.733977 47.9717672,224.113799 47.9717672,217.476163 C47.9717672,210.607001 56.7497753,201.939277 57.4091439,201.297798 L57.4103001,201.296645 C57.4357119,201.271818 57.4484178,201.259693 57.4484178,201.259693 C57.4484178,201.259693 66.9250525,210.339091 66.9250525,217.476163 Z" id="Path" fill="#6C63FF"></path>
                <path d="M57.1031354,226.013395 L60.5691731,221.170284 L57.0944732,226.545174 L57.0852392,227.101196 C56.8427315,227.095999 56.6025395,227.084453 56.3652318,227.068285 L56.7388069,219.92775 L56.7359164,219.872318 L56.7422693,219.861928 L56.7774868,219.187541 L53.2941025,213.799367 L56.7884456,218.681745 L56.7965361,218.824937 L57.0788735,213.429841 L54.0966791,207.862102 L57.1152473,212.482913 L57.4091344,201.297785 L57.4102906,201.259668 L57.4102906,201.29662 L57.3612141,210.116773 L60.3301373,206.620114 L57.3490927,210.876604 L57.2705767,215.707056 L60.0426095,211.071223 L57.2590334,216.417823 L57.2151505,219.103243 L61.2395322,212.650952 L57.2001385,220.040344 L57.1031354,226.013395 Z" id="Path" fill="#3F3D56"></path>
            </g>
        </g>
    </g>
</svg>