<?xml version="1.0" encoding="UTF-8"?>
<svg width="117px" height="28px" viewBox="0 0 117 28" version="1.1" xmlns="http://www.w3.org/2000/svg" xmlns:xlink="http://www.w3.org/1999/xlink">
    <!-- Generator: Sketch 55.2 (78181) - https://sketchapp.com -->
    <title>Header/Logo</title>
    <desc>Created with Sketch.</desc>
    <g id="Header/Logo" stroke="none" stroke-width="1" fill="none" fill-rule="evenodd">
        <g fill-rule="nonzero" stroke-width="0.5">
            <path d="M5.86,18.96 C4.0866578,18.96 2.666672,18.6233367 1.6,17.95 C0.533328,17.2766633 -4.26325641e-14,16.2466736 -4.26325641e-14,14.86 C-4.26325641e-14,14.126663 0.1266654,13.5666686 0.38,13.18 C0.6333346,12.7933314 1.0066642,12.6 1.5,12.6 C1.8600018,12.6 2.1533322,12.6933324 2.38,12.88 C2.6066678,13.0666676 2.72,13.3066652 2.72,13.6 C2.72,13.866668 2.7000002,14.099999 2.66,14.3 C2.66,14.3533336 2.6500001,14.446666 2.63,14.58 C2.6099999,14.713334 2.6,14.8533326 2.6,15 C2.6,15.600003 2.9033303,16.0466652 3.51,16.34 C4.1166697,16.6333348 4.9666612,16.78 6.06,16.78 C7.193339,16.78 8.0799968,16.5766687 8.72,16.17 C9.3600032,15.7633313 9.68,15.193337 9.68,14.46 C9.68,14.0066644 9.5333348,13.6166683 9.24,13.29 C8.9466652,12.9633317 8.5800022,12.6900011 8.14,12.47 C7.6999978,12.2499989 7.080004,11.9800016 6.28,11.66 C5.2533282,11.259998 4.4166699,10.8800018 3.77,10.52 C3.1233301,10.1599982 2.5700023,9.6700031 2.11,9.05 C1.6499977,8.4299969 1.42,7.6600046 1.42,6.74 C1.42,5.7799952 1.6766641,4.9266704 2.19,4.18 C2.7033359,3.4333296 3.4433285,2.8533354 4.41,2.44 C5.3766715,2.0266646 6.5133268,1.82 7.82,1.82 C8.7933382,1.82 9.6866626,1.9633319 10.5,2.25 C11.3133374,2.5366681 11.9633309,2.9733304 12.45,3.56 C12.9366691,4.1466696 13.18,4.8666624 13.18,5.72 C13.18,6.5600042 13.0533346,7.1933312 12.8,7.62 C12.5466654,8.0466688 12.1733358,8.26 11.68,8.26 C11.3333316,8.26 11.0433345,8.1533344 10.81,7.94 C10.5766655,7.7266656 10.46,7.4733348 10.46,7.18 C10.46,6.9266654 10.4799998,6.6933344 10.52,6.48 C10.5600002,6.079998 10.58,5.8266672 10.58,5.72 C10.58,5.1599972 10.3066694,4.7333348 9.76,4.44 C9.2133306,4.1466652 8.5333374,4 7.72,4 C6.5733276,4 5.6966697,4.2099979 5.09,4.63 C4.4833303,5.0500021 4.18,5.6399962 4.18,6.4 C4.18,6.9066692 4.3366651,7.3399982 4.65,7.7 C4.9633349,8.0600018 5.353331,8.3599988 5.82,8.6 C6.286669,8.8400012 6.9399958,9.126665 7.78,9.46 C8.7933384,9.8733354 9.6066636,10.246665 10.22,10.58 C10.8333364,10.913335 11.3566645,11.3666638 11.79,11.94 C12.2233355,12.5133362 12.44,13.2199958 12.44,14.06 C12.44,15.6333412 11.8433393,16.8433291 10.65,17.69 C9.4566607,18.5366709 7.86001,18.96 5.86,18.96 Z M22.3776472,14.34 C22.5509814,14.34 22.6876467,14.4199992 22.7876472,14.58 C22.8876477,14.7400008 22.9376472,14.9599986 22.9376472,15.24 C22.9376472,15.773336 22.8109818,16.1866652 22.5576472,16.48 C21.984311,17.1866702 21.3576506,17.7666644 20.6776472,18.22 C19.9976438,18.6733356 19.2176516,18.9 18.3376472,18.9 C15.6176336,18.9 14.2576472,16.9866858 14.2576472,13.16 C14.2576472,12.5733304 14.277647,11.980003 14.3176472,11.38 L13.5376472,11.38 C13.1376452,11.38 12.8676479,11.3066674 12.7276472,11.16 C12.5876465,11.0133326 12.5176472,10.7800016 12.5176472,10.46 C12.5176472,9.7133296 12.8176442,9.34 13.4176472,9.34 L14.5576472,9.34 C14.784315,7.873326 15.1309782,6.5333394 15.5976472,5.32 C16.0643162,4.1066606 16.6276439,3.1400036 17.2876472,2.42 C17.9476505,1.6999964 18.6576434,1.34 19.4176472,1.34 C19.97765,1.34 20.4176456,1.5866642 20.7376472,2.08 C21.0576488,2.5733358 21.2176472,3.1933296 21.2176472,3.94 C21.2176472,6.006677 20.3509892,7.806659 18.6176472,9.34 L20.8576472,9.34 C21.0709816,9.34 21.2243134,9.3866662 21.3176472,9.48 C21.410981,9.5733338 21.4576472,9.7466654 21.4576472,10 C21.4576472,10.9200046 20.7043214,11.38 19.1976472,11.38 L16.7576472,11.38 C16.7309804,12.04667 16.7176472,12.5666648 16.7176472,12.94 C16.7176472,14.3266736 16.8809789,15.2999972 17.2076472,15.86 C17.5343155,16.4200028 18.050977,16.7 18.7576472,16.7 C19.3309834,16.7 19.837645,16.5266684 20.2776472,16.18 C20.7176494,15.8333316 21.2376442,15.3133368 21.8376472,14.62 C21.997648,14.4333324 22.1776462,14.34 22.3776472,14.34 Z M18.8776472,3.26 C18.6776462,3.26 18.4543151,3.5099975 18.2076472,4.01 C17.9609793,4.5100025 17.7276483,5.2033289 17.5076472,6.09 C17.2876461,6.9766711 17.1043146,7.9599946 16.9576472,9.04 C17.7443178,8.3599966 18.3343119,7.5966709 18.7276472,6.75 C19.1209825,5.9033291 19.3176472,5.1333368 19.3176472,4.44 C19.3176472,3.6533294 19.170982,3.26 18.8776472,3.26 Z M22.8752943,18.9 C22.2752913,18.9 21.7852962,18.6233361 21.4052943,18.07 C21.0252924,17.5166639 20.8352943,16.8266708 20.8352943,16 C20.8352943,14.999995 20.9019603,14.0833375 21.0352943,13.25 C21.1686283,12.4166625 21.3886261,11.533338 21.6952943,10.6 C21.8286283,10.199998 22.0152931,9.9133342 22.2552943,9.74 C22.4952955,9.5666658 22.8752917,9.48 23.3952943,9.48 C23.6886291,9.48 23.8919604,9.5266662 24.0052943,9.62 C24.1186282,9.7133338 24.1752943,9.8533324 24.1752943,10.04 C24.1752943,10.1466672 24.1019617,10.5066636 23.9552943,11.12 C23.8219603,11.6133358 23.7152947,12.059998 23.6352943,12.46 C23.3686263,13.860007 23.2352943,14.793331 23.2352943,15.26 C23.2352943,15.5400014 23.2686273,15.7366661 23.3352943,15.85 C23.4019613,15.9633339 23.5086269,16.02 23.6552943,16.02 C23.8552953,16.02 24.1052928,15.820002 24.4052943,15.42 C24.7052958,15.019998 25.0252926,14.4133374 25.3652943,13.6 C25.705296,12.7866626 26.0352927,11.7866726 26.3552943,10.6 C26.4619615,10.199998 26.6252932,9.9133342 26.8452943,9.74 C27.0652954,9.5666658 27.3952921,9.48 27.8352943,9.48 C28.1419625,9.48 28.3552937,9.5166663 28.4752943,9.59 C28.5952949,9.6633337 28.6552943,9.799999 28.6552943,10 C28.6552943,10.333335 28.4886293,11.2466592 28.1552943,12.74 C27.7819591,14.4466752 27.5952943,15.499998 27.5952943,15.9 C27.5952943,16.1533346 27.6486271,16.3499993 27.7552943,16.49 C27.8619615,16.6300007 28.0019601,16.7 28.1752943,16.7 C28.4419623,16.7 28.7586258,16.5366683 29.1252943,16.21 C29.4919628,15.8833317 29.9819579,15.353337 30.5952943,14.62 C30.7552951,14.4333324 30.9352933,14.34 31.1352943,14.34 C31.3086285,14.34 31.4452938,14.4199992 31.5452943,14.58 C31.6452948,14.7400008 31.6952943,14.9599986 31.6952943,15.24 C31.6952943,15.773336 31.5686289,16.1866652 31.3152943,16.48 C30.7419581,17.1866702 30.1252976,17.7666644 29.4652943,18.22 C28.805291,18.6733356 28.0552985,18.9 27.2152943,18.9 C26.5752911,18.9 26.1052958,18.6533358 25.8052943,18.16 C25.5052928,17.6666642 25.3552943,16.9733378 25.3552943,16.08 C25.1286265,16.9866712 24.7886299,17.6833309 24.3352943,18.17 C23.8819587,18.6566691 23.3952969,18.9 22.8752943,18.9 Z M40.9529415,14.34 C41.1262757,14.34 41.262941,14.4199992 41.3629415,14.58 C41.462942,14.7400008 41.5129415,14.9599986 41.5129415,15.24 C41.5129415,15.773336 41.3862761,16.1866652 41.1329415,16.48 C40.5862721,17.14667 39.9862781,17.7166643 39.3329415,18.19 C38.6796049,18.6633357 38.0329447,18.9 37.3929415,18.9 C36.3796031,18.9 35.6062775,18.3066726 35.0729415,17.12 C34.5129387,17.8266702 34.0229436,18.2999988 33.6029415,18.54 C33.1829394,18.7800012 32.6929443,18.9 32.1329415,18.9 C31.3196041,18.9 30.6496108,18.5966697 30.1229415,17.99 C29.5962722,17.3833303 29.3329415,16.5933382 29.3329415,15.62 C29.3329415,14.553328 29.5596059,13.5633379 30.0129415,12.65 C30.4662771,11.7366621 31.0896042,10.9900029 31.8829415,10.41 C32.6762788,9.8299971 33.5662699,9.4866672 34.5529415,9.38 C34.8062761,6.7933204 35.2896046,4.5833425 36.0029415,2.75 C36.7162784,0.9166575 37.6529357,-1.24344979e-14 38.8129415,-1.24344979e-14 C39.3862777,-1.24344979e-14 39.8629396,0.2599974 40.2429415,0.78 C40.6229434,1.3000026 40.8129415,2.0866614 40.8129415,3.14 C40.8129415,4.6333408 40.4462785,6.37999 39.7129415,8.38 C38.9796045,10.38001 37.9996143,12.4333228 36.7729415,14.54 C36.8262751,15.3133372 36.9429406,15.866665 37.1229415,16.2 C37.3029424,16.533335 37.5329401,16.7 37.8129415,16.7 C38.1729433,16.7 38.5396063,16.5400016 38.9129415,16.22 C39.2862767,15.8999984 39.7862717,15.3666704 40.4129415,14.62 C40.5729423,14.4333324 40.7529405,14.34 40.9529415,14.34 Z M38.5929415,1.96 C38.3396069,1.96 38.0862761,2.4099955 37.8329415,3.31 C37.5796069,4.2100045 37.3629424,5.3866594 37.1829415,6.84 C37.0029406,8.2933406 36.8729419,9.8133254 36.7929415,11.4 C38.2862823,8.1466504 39.0329415,5.5333432 39.0329415,3.56 C39.0329415,3.0533308 38.9896086,2.6600014 38.9029415,2.38 C38.8162744,2.0999986 38.7129421,1.96 38.5929415,1.96 Z M32.8329415,16.88 C33.0862761,16.88 33.3396069,16.7766677 33.5929415,16.57 C33.8462761,16.3633323 34.1662729,15.9800028 34.5529415,15.42 C34.4196075,14.6999964 34.3529415,13.8933378 34.3529415,13 C34.3529415,12.6799984 34.3662747,12.1600036 34.3929415,11.44 C33.6596045,11.6666678 33.0496106,12.1566629 32.5629415,12.91 C32.0762724,13.6633371 31.8329415,14.4999954 31.8329415,15.42 C31.8329415,16.3933382 32.1662715,16.88 32.8329415,16.88 Z M46.4105887,9.48 C46.7172569,9.48 46.9305881,9.5199996 47.0505887,9.6 C47.1705893,9.6800004 47.2305887,9.8133324 47.2305887,10 C47.2305887,10.3200016 47.0572571,11.4599902 46.7105887,13.42 C46.4039205,15.3000094 46.2239223,16.4133316 46.1705887,16.76 C45.6772529,20.1866838 44.9972597,22.89999 44.1305887,24.9 C43.2639177,26.90001 42.1105959,27.9 40.6705887,27.9 C39.9905853,27.9 39.4372575,27.6900021 39.0105887,27.27 C38.5839199,26.8499979 38.3705887,26.3000034 38.3705887,25.62 C38.3705887,24.9933302 38.5139206,24.3533366 38.8005887,23.7 C39.0872568,23.0466634 39.6205848,22.2966709 40.4005887,21.45 C41.1805926,20.6033291 42.2839149,19.6333388 43.7105887,18.54 L43.7705887,18.08 C43.8639225,17.5866642 43.9705881,16.8800046 44.0905887,15.96 C43.8239207,16.9200048 43.4505911,17.6499975 42.9705887,18.15 C42.4905863,18.6500025 41.9839247,18.9 41.4505887,18.9 C40.8505857,18.9 40.3605906,18.6233361 39.9805887,18.07 C39.6005868,17.5166639 39.4105887,16.8266708 39.4105887,16 C39.4105887,14.999995 39.4772547,14.0833375 39.6105887,13.25 C39.7439227,12.4166625 39.9639205,11.533338 40.2705887,10.6 C40.4039227,10.199998 40.5905875,9.9133342 40.8305887,9.74 C41.0705899,9.5666658 41.4505861,9.48 41.9705887,9.48 C42.2639235,9.48 42.4672548,9.5266662 42.5805887,9.62 C42.6939226,9.7133338 42.7505887,9.8533324 42.7505887,10.04 C42.7505887,10.1466672 42.6772561,10.5066636 42.5305887,11.12 C42.3972547,11.6133358 42.2905891,12.059998 42.2105887,12.46 C42.1039215,13.0066694 42.0105891,13.5299975 41.9305887,14.03 C41.8505883,14.5300025 41.8105887,14.9399984 41.8105887,15.26 C41.8105887,15.7666692 41.9505873,16.02 42.2305887,16.02 C42.4305897,16.02 42.6805872,15.820002 42.9805887,15.42 C43.2805902,15.019998 43.600587,14.4133374 43.9405887,13.6 C44.2805904,12.7866626 44.6105871,11.7866726 44.9305887,10.6 C45.0372559,10.199998 45.2005876,9.9133342 45.4205887,9.74 C45.6405898,9.5666658 45.9705865,9.48 46.4105887,9.48 Z M40.8905887,25.96 C41.2239237,25.96 41.5972533,25.5733372 42.0105887,24.8 C42.4239241,24.0266628 42.8372533,22.740009 43.2505887,20.94 C42.2239169,21.806671 41.480591,22.5966631 41.0205887,23.31 C40.5605864,24.0233369 40.3305887,24.646664 40.3305887,25.18 C40.3305887,25.4066678 40.3739216,25.5933326 40.4605887,25.74 C40.5472558,25.8866674 40.6905877,25.96 40.8905887,25.96 Z" id="Study" stroke="#000000" fill="#000000"></path>
            <path d="M78.125883,10.16 C78.4325512,10.16 78.6558823,10.226666 78.795883,10.36 C78.9358837,10.493334 79.005883,10.6666656 79.005883,10.88 C79.005883,11.2266684 78.9025507,11.533332 78.695883,11.8 C78.4892153,12.066668 78.1658852,12.2066666 77.725883,12.22 C76.6725444,12.2333334 75.7258872,12.1533342 74.885883,11.98 C73.952545,13.9666766 72.8292229,15.6166601 71.515883,16.93 C70.2025431,18.2433399 68.9058894,18.9 67.625883,18.9 C66.4525438,18.9 65.5725526,18.2766729 64.985883,17.03 C64.3992134,15.7833271 64.0658834,14.1133438 63.985883,12.02 C63.185883,14.3400116 62.2825547,16.066661 61.275883,17.2 C60.2692113,18.333339 59.199222,18.9 58.065883,18.9 C56.7858766,18.9 55.8192196,18.1033413 55.165883,16.51 C54.5125464,14.9166587 54.185883,12.7733468 54.185883,10.08 C54.185883,8.1199902 54.3592146,5.9666784 54.705883,3.62 C54.7992168,2.95333 54.9692151,2.4900013 55.215883,2.23 C55.4625509,1.9699987 55.852547,1.84 56.385883,1.84 C56.785885,1.84 57.0958819,1.9266658 57.315883,2.1 C57.5358841,2.2733342 57.645883,2.593331 57.645883,3.06 C57.645883,3.1533338 57.6325498,3.333332 57.605883,3.6 C57.205881,6.333347 57.005883,8.6599904 57.005883,10.58 C57.005883,12.3666756 57.1592148,13.7466618 57.465883,14.72 C57.7725512,15.6933382 58.185883,16.18 58.705883,16.18 C59.172552,16.18 59.7358797,15.6900049 60.395883,14.71 C61.0558863,13.7299951 61.7125464,12.2766763 62.365883,10.35 C63.0192196,8.4233237 63.5725474,6.12668 64.025883,3.46 C64.1325502,2.8466636 64.3292149,2.4233345 64.615883,2.19 C64.9025511,1.9566655 65.2925472,1.84 65.785883,1.84 C66.1992184,1.84 66.5025487,1.9299991 66.695883,2.11 C66.8892173,2.2900009 66.985883,2.5599982 66.985883,2.92 C66.985883,3.1333344 66.9725498,3.2999994 66.945883,3.42 C66.5725478,5.5933442 66.385883,7.7666558 66.385883,9.94 C66.385883,11.4200074 66.4358825,12.5999956 66.535883,13.48 C66.6358835,14.3600044 66.8292149,15.0299977 67.115883,15.49 C67.4025511,15.9500023 67.8192136,16.18 68.365883,16.18 C69.0058862,16.18 69.7192124,15.6966715 70.505883,14.73 C71.2925536,13.7633285 72.0125464,12.5600072 72.665883,11.12 C71.8525456,10.6133308 71.2392184,9.9566707 70.825883,9.15 C70.4125476,8.3433293 70.205883,7.4133386 70.205883,6.36 C70.205883,5.3066614 70.3692147,4.4166703 70.695883,3.69 C71.0225513,2.9633297 71.4692135,2.4200018 72.035883,2.06 C72.6025525,1.6999982 73.2325462,1.52 73.925883,1.52 C74.7792206,1.52 75.4558805,1.8266636 75.955883,2.44 C76.4558855,3.0533364 76.705883,3.893328 76.705883,4.96 C76.705883,6.4666742 76.3792196,8.1399908 75.725883,9.98 C76.4058864,10.1000006 77.2058784,10.16 78.125883,10.16 Z M72.225883,6.22 C72.225883,7.5266732 72.6458788,8.4933302 73.485883,9.12 C74.0058856,7.6266592 74.265883,6.3933382 74.265883,5.42 C74.265883,4.8599972 74.1925504,4.4500013 74.045883,4.19 C73.8992156,3.9299987 73.6992176,3.8 73.445883,3.8 C73.0858812,3.8 72.7925508,4.0099979 72.565883,4.43 C72.3392152,4.8500021 72.225883,5.4466628 72.225883,6.22 Z M78.2435302,18.9 C77.4168594,18.9 76.756866,18.600003 76.2635302,18 C75.7701944,17.399997 75.5235302,16.6133382 75.5235302,15.64 C75.5235302,14.573328 75.7701944,13.5633381 76.2635302,12.61 C76.756866,11.6566619 77.4135261,10.8900029 78.2335302,10.31 C79.0535343,9.7299971 79.9235256,9.44 80.8435302,9.44 C81.136865,9.44 81.3335297,9.4966661 81.4335302,9.61 C81.5335307,9.7233339 81.6168632,9.9266652 81.6835302,10.22 C81.9635316,10.1666664 82.256862,10.14 82.5635302,10.14 C83.2168668,10.14 83.5435302,10.373331 83.5435302,10.84 C83.5435302,11.1200014 83.4435312,11.7866614 83.2435302,12.84 C82.936862,14.373341 82.7835302,15.44 82.7835302,16.04 C82.7835302,16.240001 82.8335297,16.3999994 82.9335302,16.52 C83.0335307,16.6400006 83.1635294,16.7 83.3235302,16.7 C83.5768648,16.7 83.8835284,16.5366683 84.2435302,16.21 C84.603532,15.8833317 85.0901938,15.353337 85.7035302,14.62 C85.863531,14.4333324 86.0435292,14.34 86.2435302,14.34 C86.4168644,14.34 86.5535297,14.4199992 86.6535302,14.58 C86.7535307,14.7400008 86.8035302,14.9599986 86.8035302,15.24 C86.8035302,15.773336 86.6768648,16.1866652 86.4235302,16.48 C85.8768608,17.1600034 85.2968666,17.733331 84.6835302,18.2 C84.0701938,18.666669 83.4768664,18.9 82.9035302,18.9 C82.463528,18.9 82.0601987,18.7500015 81.6935302,18.45 C81.3268617,18.1499985 81.0501978,17.7400026 80.8635302,17.22 C80.1701934,18.3400056 79.2968688,18.9 78.2435302,18.9 Z M78.9635302,16.88 C79.256865,16.88 79.5368622,16.7066684 79.8035302,16.36 C80.0701982,16.0133316 80.2635296,15.5533362 80.3835302,14.98 L81.1235302,11.3 C80.5635274,11.3133334 80.0468659,11.5233313 79.5735302,11.93 C79.1001945,12.3366687 78.7235316,12.87333 78.4435302,13.54 C78.1635288,14.20667 78.0235302,14.9133296 78.0235302,15.66 C78.0235302,16.0733354 78.1068627,16.379999 78.2735302,16.58 C78.4401977,16.780001 78.6701954,16.88 78.9635302,16.88 Z M93.6211773,14.34 C93.7945115,14.34 93.9311768,14.4199992 94.0311773,14.58 C94.1311778,14.7400008 94.1811773,14.9599986 94.1811773,15.24 C94.1811773,15.773336 94.0545119,16.1866652 93.8011773,16.48 C93.2278411,17.1866702 92.6011807,17.7666644 91.9211773,18.22 C91.2411739,18.6733356 90.4611817,18.9 89.5811773,18.9 C86.8611637,18.9 85.5011773,16.9866858 85.5011773,13.16 C85.5011773,12.5733304 85.5211771,11.980003 85.5611773,11.38 L84.7811773,11.38 C84.3811753,11.38 84.111178,11.3066674 83.9711773,11.16 C83.8311766,11.0133326 83.7611773,10.7800016 83.7611773,10.46 C83.7611773,9.7133296 84.0611743,9.34 84.6611773,9.34 L85.8011773,9.34 C86.0278451,7.873326 86.3745083,6.5333394 86.8411773,5.32 C87.3078463,4.1066606 87.871174,3.1400036 88.5311773,2.42 C89.1911806,1.6999964 89.9011735,1.34 90.6611773,1.34 C91.2211801,1.34 91.6611757,1.5866642 91.9811773,2.08 C92.3011789,2.5733358 92.4611773,3.1933296 92.4611773,3.94 C92.4611773,6.006677 91.5945193,7.806659 89.8611773,9.34 L92.1011773,9.34 C92.3145117,9.34 92.4678435,9.3866662 92.5611773,9.48 C92.6545111,9.5733338 92.7011773,9.7466654 92.7011773,10 C92.7011773,10.9200046 91.9478515,11.38 90.4411773,11.38 L88.0011773,11.38 C87.9745105,12.04667 87.9611773,12.5666648 87.9611773,12.94 C87.9611773,14.3266736 88.124509,15.2999972 88.4511773,15.86 C88.7778456,16.4200028 89.2945071,16.7 90.0011773,16.7 C90.5745135,16.7 91.0811751,16.5266684 91.5211773,16.18 C91.9611795,15.8333316 92.4811743,15.3133368 93.0811773,14.62 C93.2411781,14.4333324 93.4211763,14.34 93.6211773,14.34 Z M90.1211773,3.26 C89.9211763,3.26 89.6978452,3.5099975 89.4511773,4.01 C89.2045094,4.5100025 88.9711784,5.2033289 88.7511773,6.09 C88.5311762,6.9766711 88.3478447,7.9599946 88.2011773,9.04 C88.9878479,8.3599966 89.577842,7.5966709 89.9711773,6.75 C90.3645126,5.9033291 90.5611773,5.1333368 90.5611773,4.44 C90.5611773,3.6533294 90.4145121,3.26 90.1211773,3.26 Z M95.7988245,19.34 C95.1054877,19.34 94.575493,19.1800016 94.2088245,18.86 C93.842156,18.5399984 93.6588245,18.180002 93.6588245,17.78 C93.6588245,17.4333316 93.7854899,17.1333346 94.0388245,16.88 C94.2921591,16.6266654 94.6654887,16.5 95.1588245,16.5 C95.3321587,16.5 95.53549,16.5166665 95.7688245,16.55 C96.002159,16.5833335 96.1788239,16.6066666 96.2988245,16.62 C96.2854911,16.2733316 96.2088252,15.9466682 96.0688245,15.64 C95.9288238,15.3333318 95.7521589,15.0366681 95.5388245,14.75 C95.3254901,14.4633319 95.1254921,14.2133344 94.9388245,14 C94.5254891,14.7866706 94.1154932,15.4399974 93.7088245,15.96 C93.3021558,16.4800026 92.8588269,16.973331 92.3788245,17.44 C92.1388233,17.6800012 91.8854925,17.8 91.6188245,17.8 C91.4054901,17.8 91.2321585,17.7233341 91.0988245,17.57 C90.9654905,17.4166659 90.8988245,17.2266678 90.8988245,17 C90.8988245,16.733332 90.9921569,16.4866678 91.1788245,16.26 L91.4388245,15.94 C92.1721615,15.0333288 92.7254893,14.2866696 93.0988245,13.7 C93.3254923,13.3133314 93.5921563,12.7966699 93.8988245,12.15 C94.2054927,11.5033301 94.5054897,10.8333368 94.7988245,10.14 C95.0521591,9.5533304 95.5788205,9.26 96.3788245,9.26 C96.7521597,9.26 97.0121571,9.293333 97.1588245,9.36 C97.3054919,9.426667 97.3788245,9.5333326 97.3788245,9.68 C97.3788245,9.76 97.3521581,9.8866658 97.2988245,10.06 C97.2454909,10.2333342 97.1721583,10.4066658 97.0788245,10.58 C96.8388233,11.0600024 96.7188245,11.466665 96.7188245,11.8 C96.7188245,12.000001 96.7888238,12.2199988 96.9288245,12.46 C97.0688252,12.7000012 97.2854897,12.9999982 97.5788245,13.36 C98.0054933,13.9200028 98.3288234,14.3966647 98.5488245,14.79 C98.7688256,15.1833353 98.8788245,15.613331 98.8788245,16.08 C98.8788245,16.213334 98.8654913,16.3999988 98.8388245,16.64 C99.4921611,16.3866654 100.25882,15.7133388 101.138825,14.62 C101.298825,14.4333324 101.478824,14.34 101.678825,14.34 C101.852159,14.34 101.988824,14.4199992 102.088825,14.58 C102.188825,14.7400008 102.238825,14.9599986 102.238825,15.24 C102.238825,15.7466692 102.112159,16.1599984 101.858825,16.48 C101.192155,17.3066708 100.555494,17.8699985 99.9488245,18.17 C99.3421548,18.4700015 98.5921623,18.6333332 97.6988245,18.66 C97.1654885,19.1133356 96.5321615,19.34 95.7988245,19.34 Z M110.336472,12.66 C110.509806,12.66 110.643138,12.7466658 110.736472,12.92 C110.829805,13.0933342 110.876472,13.313332 110.876472,13.58 C110.876472,14.2200032 110.68314,14.5999994 110.296472,14.72 C109.496468,15.0000014 108.616476,15.1599998 107.656472,15.2 C107.403137,16.3200056 106.903142,17.2166633 106.156472,17.89 C105.409801,18.5633367 104.563143,18.9 103.616472,18.9 C102.816468,18.9 102.133141,18.7066686 101.566472,18.32 C100.999802,17.9333314 100.569806,17.4200032 100.276472,16.78 C99.9831369,16.1399968 99.8364717,15.4466704 99.8364717,14.7 C99.8364717,13.6866616 100.029803,12.7833373 100.416472,11.99 C100.80314,11.1966627 101.336472,10.5766689 102.016472,10.13 C102.696475,9.6833311 103.449801,9.46 104.276472,9.46 C105.28981,9.46 106.106469,9.8099965 106.726472,10.51 C107.346475,11.2100035 107.709804,12.0733282 107.816472,13.1 C108.443141,13.0599998 109.189801,12.9266678 110.056472,12.7 C110.163139,12.6733332 110.256471,12.66 110.336472,12.66 Z M103.776472,16.78 C104.20314,16.78 104.573137,16.6066684 104.886472,16.26 C105.199807,15.9133316 105.409804,15.4133366 105.516472,14.76 C105.103136,14.4799986 104.786473,14.1133356 104.566472,13.66 C104.346471,13.2066644 104.236472,12.7266692 104.236472,12.22 C104.236472,12.0066656 104.256471,11.7933344 104.296472,11.58 L104.196472,11.58 C103.663136,11.58 103.219807,11.8366641 102.866472,12.35 C102.513137,12.8633359 102.336472,13.586662 102.336472,14.52 C102.336472,15.253337 102.479804,15.8133314 102.766472,16.2 C103.05314,16.5866686 103.389803,16.78 103.776472,16.78 Z M110.094119,18.9 C109.58745,18.9 109.230787,18.633336 109.024119,18.1 C108.817451,17.566664 108.714119,16.7133392 108.714119,15.54 C108.714119,13.806658 108.960783,12.1600078 109.454119,10.6 C109.574119,10.2133314 109.770784,9.9300009 110.044119,9.75 C110.317454,9.5699991 110.700783,9.48 111.194119,9.48 C111.460787,9.48 111.647452,9.513333 111.754119,9.58 C111.860786,9.646667 111.914119,9.7733324 111.914119,9.96 C111.914119,10.1733344 111.81412,10.6533296 111.614119,11.4 C111.480785,11.933336 111.374119,12.399998 111.294119,12.8 C111.214119,13.200002 111.147452,13.6933304 111.094119,14.28 C111.534121,13.1333276 112.027449,12.2000036 112.574119,11.48 C113.120788,10.7599964 113.65745,10.2466682 114.184119,9.94 C114.710788,9.6333318 115.194117,9.48 115.634119,9.48 C116.060788,9.48 116.384118,9.5899989 116.604119,9.81 C116.82412,10.0300011 116.934119,10.3533312 116.934119,10.78 C116.934119,11.1266684 116.860786,11.7799952 116.714119,12.74 C116.580785,13.5533374 116.474119,14.3233297 116.394119,15.05 C116.314118,15.7766703 116.274119,16.5866622 116.274119,17.48 C116.274119,17.9866692 116.170787,18.3499989 115.964119,18.57 C115.757451,18.7900011 115.420788,18.9 114.954119,18.9 C114.514117,18.9 114.19412,18.7866678 113.994119,18.56 C113.794118,18.3333322 113.694119,17.9933356 113.694119,17.54 C113.694119,17.006664 113.787451,16.1266728 113.974119,14.9 C114.13412,13.833328 114.214119,13.1533348 114.214119,12.86 C114.214119,12.6466656 114.140786,12.54 113.994119,12.54 C113.820785,12.54 113.577454,12.7633311 113.264119,13.21 C112.950784,13.6566689 112.630787,14.246663 112.304119,14.98 C111.977451,15.713337 111.714119,16.4866626 111.514119,17.3 C111.367451,17.9266698 111.197453,18.3499989 111.004119,18.57 C110.810785,18.7900011 110.507454,18.9 110.094119,18.9 Z" id="Watson" stroke="#0077FF" fill="#0077FF"></path>
        </g>
    </g>
</svg>