<?xml version="1.0" encoding="UTF-8"?>
<svg width="500px" height="500px" viewBox="0 0 500 500" version="1.1" xmlns="http://www.w3.org/2000/svg" xmlns:xlink="http://www.w3.org/1999/xlink">
    <!-- Generator: Sketch 55.2 (78181) - https://sketchapp.com -->
    <title>Artboard</title>
    <desc>Created with Sketch.</desc>
    <g id="Artboard" stroke="none" stroke-width="1" fill="none" fill-rule="evenodd">
        <circle id="Oval" fill="#0077FF" cx="250" cy="250" r="250"></circle>
        <path d="M401.482955,248.179418 C405.646802,248.179418 408.801964,249.113789 410.887242,251.084018 C412.957051,253.039633 414,255.601692 414,258.656274 C414,263.254647 412.606206,267.358264 409.833778,270.907222 C406.956151,274.590844 402.504095,276.503251 396.59628,276.680592 C384.101799,276.837495 372.804639,275.941042 362.703259,273.98751 C351.283129,297.806241 337.578694,317.65274 321.585469,333.519135 C305.173214,349.801237 288.854365,358 272.63898,358 C257.540527,358 246.159904,350.002653 238.689951,334.254884 C232.203966,320.581467 228.218156,302.864003 226.710432,281.095196 C217.549659,305.543709 207.323355,324.087393 196.001765,336.732474 C183.345169,350.868623 169.77181,358 155.329609,358 C138.851525,358 126.416211,347.832859 118.154849,327.845028 C110.041006,308.214109 106,281.910421 106,248.917439 C106,224.968747 108.133673,198.672174 112.397576,170.038061 C113.588212,161.600958 115.788882,155.650618 119.113192,152.174404 C122.506589,148.625945 127.739318,146.895534 134.714573,146.895534 C139.978628,146.895534 144.151701,148.052948 147.187491,150.425814 C150.374643,152.91699 151.894543,157.303456 151.894543,163.459162 C151.894543,164.670814 151.727975,166.901659 151.385453,170.281732 C146.488384,203.479662 144.041196,231.722845 144.041196,255.004211 C144.041196,276.594417 145.904656,293.232552 149.605757,304.886368 C153.168376,316.104142 157.75711,321.464152 163.182956,321.464152 C168.146641,321.464152 174.697387,315.811352 182.496938,304.322042 C190.496235,292.538492 198.495334,274.975295 206.467302,251.65256 C214.452563,228.290931 221.221329,200.41927 226.770827,168.034118 C228.144528,160.197976 230.727085,154.682998 234.62136,151.538376 C238.472273,148.428769 243.638629,146.895534 250.060608,146.895534 C255.527891,146.895534 259.659424,148.111652 262.395721,150.639036 C265.15327,153.186049 266.504326,156.929765 266.504326,161.754866 C266.504326,164.466536 266.33139,166.611098 265.988487,168.132592 C261.423924,194.494146 259.141814,220.853721 259.141814,247.213143 C259.141814,265.170661 259.752767,279.474824 260.971364,290.113432 C262.171882,300.59421 264.476342,308.517027 267.837842,313.868285 C271.040248,318.966278 275.601554,321.464152 281.719413,321.464152 C288.937811,321.464152 297.289297,315.850309 306.648114,304.441268 C315.95271,293.098326 324.504264,279.025874 332.296481,262.222289 C322.688744,256.006963 315.374242,248.053735 310.377406,238.379181 C305.175108,228.306824 302.579092,216.717394 302.579092,203.631856 C302.579092,190.580738 304.627133,179.509506 308.743981,170.424245 C312.885141,161.285329 318.583085,154.409213 325.834459,149.838991 C333.065398,145.281647 341.114998,143 349.945365,143 C360.920776,143 369.71566,146.95425 376.185195,154.827279 C382.594866,162.627457 385.777034,173.234751 385.777034,186.588895 C385.777034,204.611 381.958895,224.528755 374.334063,246.346054 C382.131489,247.567248 391.182277,248.179418 401.482955,248.179418 Z M353,191.947762 C353,185.421941 352.171688,180.713571 350.59186,177.866186 C349.125,175.222409 347.275267,174 344.886535,174 C341.263511,174 338.288922,176.165106 335.855255,180.749871 C333.302503,185.558978 332,192.530814 332,201.653353 C332,215.998417 336.188279,226.73229 344.553832,234 C350.189577,217.06998 353,203.043919 353,191.947762 Z" id="Watson" fill="#FFFFFF" fill-rule="nonzero"></path>
    </g>
</svg>